<svg width="16" height="16" viewBox="0 0 16 16" fill="none" xmlns="http://www.w3.org/2000/svg">
<g clip-path="url(#clip0_2231_10076)">
<path d="M14.6683 7.38674V8.00007C14.6675 9.43769 14.202 10.8365 13.3412 11.988C12.4804 13.1394 11.2705 13.9817 9.89187 14.3893C8.51325 14.797 7.0398 14.748 5.69127 14.2498C4.34275 13.7516 3.1914 12.8308 2.40893 11.6248C1.62647 10.4188 1.25482 8.99212 1.34941 7.55762C1.444 6.12312 1.99977 4.75762 2.93381 3.66479C3.86786 2.57195 5.13015 1.81033 6.53242 1.4935C7.93469 1.17668 9.40181 1.32163 10.715 1.90674M6.00163 7.33333L8.00163 9.33333L14.6683 2.66667" stroke="#10B981" stroke-width="1.33" stroke-linecap="round" stroke-linejoin="round"/>
</g>
<defs>
<clipPath id="clip0_2231_10076">
<rect width="16" height="16" fill="white" transform="translate(0.00146484)"/>
</clipPath>
</defs>
</svg>
