<svg width="16" height="16" viewBox="0 0 16 16" fill="none" xmlns="http://www.w3.org/2000/svg">
<path d="M6.00065 8.66675C6.36884 8.66675 6.66732 8.36827 6.66732 8.00008C6.66732 7.63189 6.36884 7.33341 6.00065 7.33341C5.63246 7.33341 5.33398 7.63189 5.33398 8.00008C5.33398 8.36827 5.63246 8.66675 6.00065 8.66675Z" fill="#A1A1AA"/>
<path d="M6.00065 4.00008C6.36884 4.00008 6.66732 3.7016 6.66732 3.33341C6.66732 2.96522 6.36884 2.66675 6.00065 2.66675C5.63246 2.66675 5.33398 2.96522 5.33398 3.33341C5.33398 3.7016 5.63246 4.00008 6.00065 4.00008Z" fill="#A1A1AA"/>
<path d="M6.00065 13.3334C6.36884 13.3334 6.66732 13.0349 6.66732 12.6667C6.66732 12.2986 6.36884 12.0001 6.00065 12.0001C5.63246 12.0001 5.33398 12.2986 5.33398 12.6667C5.33398 13.0349 5.63246 13.3334 6.00065 13.3334Z" fill="#A1A1AA"/>
<path d="M10.0007 8.66675C10.3688 8.66675 10.6673 8.36827 10.6673 8.00008C10.6673 7.63189 10.3688 7.33341 10.0007 7.33341C9.63246 7.33341 9.33398 7.63189 9.33398 8.00008C9.33398 8.36827 9.63246 8.66675 10.0007 8.66675Z" fill="#A1A1AA"/>
<path d="M10.0007 4.00008C10.3688 4.00008 10.6673 3.7016 10.6673 3.33341C10.6673 2.96522 10.3688 2.66675 10.0007 2.66675C9.63246 2.66675 9.33398 2.96522 9.33398 3.33341C9.33398 3.7016 9.63246 4.00008 10.0007 4.00008Z" fill="#A1A1AA"/>
<path d="M10.0007 13.3334C10.3688 13.3334 10.6673 13.0349 10.6673 12.6667C10.6673 12.2986 10.3688 12.0001 10.0007 12.0001C9.63246 12.0001 9.33398 12.2986 9.33398 12.6667C9.33398 13.0349 9.63246 13.3334 10.0007 13.3334Z" fill="#A1A1AA"/>
<path d="M6.00065 8.66675C6.36884 8.66675 6.66732 8.36827 6.66732 8.00008C6.66732 7.63189 6.36884 7.33341 6.00065 7.33341C5.63246 7.33341 5.33398 7.63189 5.33398 8.00008C5.33398 8.36827 5.63246 8.66675 6.00065 8.66675Z" stroke="#A1A1AA" stroke-width="1.5" stroke-linecap="round" stroke-linejoin="round"/>
<path d="M6.00065 4.00008C6.36884 4.00008 6.66732 3.7016 6.66732 3.33341C6.66732 2.96522 6.36884 2.66675 6.00065 2.66675C5.63246 2.66675 5.33398 2.96522 5.33398 3.33341C5.33398 3.7016 5.63246 4.00008 6.00065 4.00008Z" stroke="#A1A1AA" stroke-width="1.5" stroke-linecap="round" stroke-linejoin="round"/>
<path d="M6.00065 13.3334C6.36884 13.3334 6.66732 13.0349 6.66732 12.6667C6.66732 12.2986 6.36884 12.0001 6.00065 12.0001C5.63246 12.0001 5.33398 12.2986 5.33398 12.6667C5.33398 13.0349 5.63246 13.3334 6.00065 13.3334Z" stroke="#A1A1AA" stroke-width="1.5" stroke-linecap="round" stroke-linejoin="round"/>
<path d="M10.0007 8.66675C10.3688 8.66675 10.6673 8.36827 10.6673 8.00008C10.6673 7.63189 10.3688 7.33341 10.0007 7.33341C9.63246 7.33341 9.33398 7.63189 9.33398 8.00008C9.33398 8.36827 9.63246 8.66675 10.0007 8.66675Z" stroke="#A1A1AA" stroke-width="1.5" stroke-linecap="round" stroke-linejoin="round"/>
<path d="M10.0007 4.00008C10.3688 4.00008 10.6673 3.7016 10.6673 3.33341C10.6673 2.96522 10.3688 2.66675 10.0007 2.66675C9.63246 2.66675 9.33398 2.96522 9.33398 3.33341C9.33398 3.7016 9.63246 4.00008 10.0007 4.00008Z" stroke="#A1A1AA" stroke-width="1.5" stroke-linecap="round" stroke-linejoin="round"/>
<path d="M10.0007 13.3334C10.3688 13.3334 10.6673 13.0349 10.6673 12.6667C10.6673 12.2986 10.3688 12.0001 10.0007 12.0001C9.63246 12.0001 9.33398 12.2986 9.33398 12.6667C9.33398 13.0349 9.63246 13.3334 10.0007 13.3334Z" stroke="#A1A1AA" stroke-width="1.5" stroke-linecap="round" stroke-linejoin="round"/>
</svg>
