<svg width="168" height="148" viewBox="0 0 168 148" fill="none" xmlns="http://www.w3.org/2000/svg">
<path d="M111.044 112.583H91.9606C86.8994 112.583 82.0455 110.573 78.4667 106.994C74.8878 103.415 72.8773 98.5611 72.8773 93.4999C72.8773 88.4387 74.8878 83.5848 78.4667 80.006C82.0455 76.4271 86.8994 74.4166 91.9606 74.4166H120.586C126.311 74.4166 131.081 76.3249 133.944 80.1416L187.377 131.667M149.211 169.834L133.944 156.475C131.081 152.659 126.311 150.75 120.586 150.75H82.4189C71.9231 150.75 62.3814 146.934 55.7023 139.3L11.8106 97.3168C8.12858 93.8373 5.97961 89.0375 5.83646 83.9735C5.6933 78.9094 7.56769 73.996 11.0473 70.3139C14.5269 66.6319 19.3266 64.4829 24.3906 64.3398C29.4547 64.1966 34.3682 66.071 38.0502 69.5506L78.1252 106.763M196.919 122.125L139.669 179.375M29.9384 60.1041C23.2592 53.4249 15.6259 44.8374 15.6259 34.3416C14.9589 28.5109 16.2805 22.6259 19.3763 17.6402C22.4722 12.6545 27.1609 8.86032 32.6826 6.87248C38.2044 4.88465 44.2356 4.81966 49.799 6.68806C55.3623 8.55646 60.1316 12.2488 63.3342 17.1666C66.7403 12.6303 71.511 9.30545 76.9459 7.6801C82.3807 6.05476 88.1935 6.21454 93.5309 8.13599C98.8682 10.0574 103.449 13.6394 106.601 18.3559C109.753 23.0724 111.309 28.6752 111.043 34.3416C111.043 45.7916 103.409 53.4249 96.73 61.0583L63.3342 93.4999L29.9384 60.1041Z" stroke="#8942FE" stroke-opacity="0.1" stroke-width="10" stroke-linecap="round" stroke-linejoin="round"/>
</svg>
