<svg width="400" height="400" viewBox="0 0 400 400" fill="none" xmlns="http://www.w3.org/2000/svg">
<g clip-path="url(#clip0_2150_23304)">
<path d="M215.061 242.22C214.538 235.981 214.345 229.719 214.481 223.46C214.481 222.94 213.721 222.8 213.661 223.46C213.008 229.734 213.075 236.062 213.861 242.32C213.875 242.479 213.951 242.626 214.073 242.73C214.194 242.833 214.352 242.883 214.511 242.87C214.671 242.857 214.818 242.781 214.921 242.659C215.024 242.537 215.075 242.379 215.061 242.22ZM206.001 239.88C206.038 239.961 206.097 240.03 206.171 240.078C206.246 240.127 206.333 240.152 206.421 240.152C206.51 240.152 206.597 240.127 206.672 240.078C206.746 240.03 206.805 239.961 206.841 239.88C206.561 233.58 206.301 227.26 206.021 220.94C206.021 220.834 205.979 220.732 205.904 220.657C205.829 220.582 205.728 220.54 205.621 220.54C205.515 220.54 205.414 220.582 205.339 220.657C205.264 220.732 205.221 220.834 205.221 220.94C204.955 225.712 205.008 230.496 205.381 235.26C205.395 236.82 205.603 238.372 206.001 239.88ZM258.421 240.68C258.617 243.769 258.272 246.869 257.401 249.84C257.401 250.3 258.741 252.84 259.581 245.54C260.108 240.609 259.08 235.638 256.641 231.32C256.381 230.84 255.701 231.32 255.921 231.74C257.306 234.538 258.154 237.57 258.421 240.68ZM234.181 96.1C234.168 97.6051 234.677 99.0683 235.621 100.24C236.821 101.32 238.681 97.12 244.261 96.46V91.06C240.368 91.3449 236.745 93.1564 234.181 96.1ZM286.761 240.56C286.761 236.44 286.401 232.34 286.321 228.22C286.321 227.66 285.461 227.78 285.461 228.34C285.461 232.6 285.461 236.9 285.641 241.18C285.721 244 286.821 242.96 286.761 240.56ZM248.001 90.96L248.121 96.36C255.021 96.6 257.021 101.8 257.761 100.18C258.081 99.44 259.381 95.74 258.681 95.1C255.745 92.4639 251.947 90.9916 248.001 90.96ZM104.461 58.5C103.421 59.06 104.461 61.52 105.281 60.98C106.101 60.44 105.601 57.84 104.461 58.5ZM103.141 52.48C101.741 52.62 101.701 54.06 103.141 54.24C104.185 54.3209 105.196 54.6354 106.101 55.16C106.641 55.52 107.221 54.8 106.901 54.3C106.489 53.6935 105.925 53.2061 105.265 52.8866C104.605 52.5672 103.873 52.4269 103.141 52.48ZM99.5614 59.52C100.097 60.9239 100.518 62.3685 100.821 63.84C101.161 65.56 101.141 66.02 101.061 66.12C100.738 66.1304 100.417 66.1706 100.101 66.24C99.5214 66.44 99.5214 67.18 100.421 67.6C100.666 67.7234 100.941 67.7703 101.212 67.7346C101.483 67.6989 101.738 67.5823 101.941 67.4C102.981 66.4 102.541 63.58 100.661 59.02C100.595 58.8741 100.474 58.7606 100.324 58.7043C100.174 58.6481 100.007 58.6537 99.8614 58.72C99.7156 58.7863 99.602 58.9078 99.5457 59.0579C99.4895 59.2079 99.4951 59.3741 99.5614 59.52Z" fill="#F4A462"/>
<path d="M389.442 300.44H361.062C363.682 286.44 348.122 276.58 338.442 281.74C337.448 276.889 334.716 272.568 330.761 269.588C326.806 266.609 321.899 265.176 316.962 265.56C316.435 262.123 315.135 258.851 313.161 255.99C311.186 253.128 308.588 250.752 305.562 249.04C304.622 237.84 305.042 226.44 305.062 215.38C306.762 215.5 310.842 215.88 310.182 214.26C308.182 209.3 304.762 201.02 302.182 196.26C303.222 196.26 304.402 196.26 304.402 195.2C304.722 176 305.342 135.72 305.342 135.72C305.662 111.88 306.462 84.4799 289.722 64.8599C289.202 64.2399 288.482 64.0199 288.022 64.6599C281.211 74.3014 276.734 85.3928 274.942 97.0599C274.262 85.6599 273.362 72.7799 271.602 60.0399C268.602 38.4199 261.362 23.8999 249.602 15.2799C248.482 14.4599 246.842 13.1399 246.102 13.6599C227.742 26.6599 222.342 49.3399 221.062 66.0799C220.602 73.1999 220.462 80.4199 220.642 87.5799C218.182 78.3999 209.742 60.4799 206.642 64.7999C192.202 85.4799 193.422 112.2 194.642 135.78C196.642 180.7 197.242 192.28 197.502 195.3C197.502 196.28 197.502 196.94 200.262 196.64C194.441 212.06 193.242 214.64 193.762 215.08C194.282 215.52 196.342 215.38 197.342 215.32C197.202 222.06 198.802 254.82 198.582 256.56C197.129 258.328 195.962 260.312 195.122 262.44C191.712 263.368 188.548 265.032 185.853 267.317C183.157 269.601 180.996 272.449 179.522 275.66C176.861 275.4 174.178 275.841 171.742 276.94C169.342 250.32 164.422 210.08 158.402 183.28C168.702 184.62 173.622 180 176.002 176C182.002 165.54 178.002 148.16 170.562 138.54C164.264 125.143 155.029 113.337 143.542 104C144.762 101.68 141.542 91.1399 133.362 86.7999C129.862 84.9399 125.202 84.7999 123.062 82.7999C118.482 78.3199 121.562 66.3999 112.022 63.2799C111.404 58.3506 110.381 53.4807 108.962 48.7199C120.962 43.5599 120.342 29.5999 113.262 25.6399C106.662 21.9599 103.022 27.1799 98.6815 28.6399C92.6815 30.6399 87.5815 26.3199 79.7015 26.3199C64.8415 26.3199 61.3215 41.2799 60.5415 42.0199C59.7615 42.7599 59.4615 46.9799 52.8415 49.5799C45.8015 52.3199 36.8415 52.4799 33.0215 60.7599C29.7815 67.9999 36.0015 76.8399 31.7215 83.5399C29.2215 87.5399 20.2415 87.7799 13.7215 98.2399C6.74152 109.38 9.08152 124.5 18.7015 130.78C10.4215 149.38 10.8015 169.16 19.6815 182.48C27.8015 194.62 41.0415 199.18 55.4215 198.8C54.7015 232.68 55.0015 266.46 53.2015 300.56C46.7015 300.56 40.1815 300.7 33.8015 300.82C33.6212 300.82 33.4482 300.892 33.3207 301.019C33.1932 301.147 33.1215 301.32 33.1215 301.5C33.1215 301.68 33.1932 301.853 33.3207 301.981C33.4482 302.108 33.6212 302.18 33.8015 302.18C39.5015 302.3 46.2415 302.42 53.0815 302.42C51.9815 322.28 50.5015 342.42 48.6815 362.16C48.5015 364.16 53.1815 364.04 55.1615 364.16C54.6146 366.938 54.4064 369.772 54.5415 372.6C53.0215 373.94 50.8015 383.1 50.9215 384.8C50.9215 385.16 51.0815 385.38 51.3215 385.42C53.5215 385.78 86.7615 387.42 88.3015 385.6C88.34 385.529 88.3602 385.45 88.3602 385.37C88.3602 385.29 88.34 385.211 88.3015 385.14C86.0815 379.14 78.3015 374.08 71.9415 372.44L73.6615 364.78C74.9815 364.78 77.6615 364.98 78.0415 364.28C86.9815 344.12 95.1215 323.3 102.222 302.44H131.302C136.842 320.222 141.732 338.201 145.962 356.34C147.662 363.66 146.482 363.26 151.202 363.48C151.179 366.332 151.522 369.175 152.222 371.94C150.688 375.549 149.762 379.388 149.482 383.3C149.443 383.367 149.423 383.443 149.423 383.52C149.423 383.597 149.443 383.673 149.482 383.74C150.742 385.34 186.642 386.68 189.102 385.22C191.102 383.94 180.142 373.32 170.422 371.36C170.562 368.806 170.502 366.245 170.242 363.7C171.942 363.7 175.862 364.16 175.862 362.48C175.862 343.6 175.222 323.38 173.862 302.48H389.502C389.772 302.472 390.028 302.357 390.214 302.16C390.4 301.963 390.499 301.7 390.492 301.43C390.484 301.159 390.368 300.903 390.172 300.717C389.975 300.532 389.712 300.432 389.442 300.44ZM118.542 264.76C123.522 278.46 126.182 286.98 130.682 300.62H102.822C107.682 286.24 114.402 264.62 118.822 246.44C120.322 240.44 123.342 242.98 122.242 247.86C120.962 253.88 118.482 264.62 118.542 264.76ZM169.002 371.56C165.582 373.12 157.002 373.02 153.662 372.06C153.442 369.2 152.862 366.34 152.822 363.48L168.542 363.66C168.682 366.3 168.842 368.92 169.002 371.56ZM57.0015 198.78C73.8015 197.94 93.7815 190.26 110.502 178.2C110.862 177.94 111.182 177.88 111.282 177.54C111.382 177.2 111.282 176.92 110.682 176.06C115.378 173.861 120.31 172.204 125.382 171.12C127.382 170.76 133.242 169.64 134.302 166.46L138.662 166.34C142.862 175.04 149.542 181.08 157.022 182.96L161.022 206.74C127.982 218.12 97.8215 220.54 57.1215 215C57.2615 209.62 57.2815 204.16 57.0615 198.78H57.0015ZM109.422 76.8799C106.622 84.1399 100.782 84.4399 101.722 86.1599V86.7799C102.102 89.9599 102.842 96.4999 97.7215 101.12C89.0815 97.6799 83.7215 93.7199 79.7215 87.9599C80.5615 86.4999 79.7215 80.1199 79.7215 80.0599C78.4815 73.5399 72.8015 72.2199 74.0815 66.3199C74.2615 65.4599 74.5215 64.9599 74.8615 64.7999C75.9815 64.2999 78.8615 68.1599 79.4615 63.6799C80.4015 57.2799 82.2015 52.3399 88.5415 50.5399C94.4215 48.8799 100.102 51.7199 107.702 49.0999C109.422 56.2199 112.382 69.0999 109.422 76.8799ZM98.0215 102.88C101.482 102.02 104.442 93.5199 103.722 88.7599C109.119 89.5224 114.435 90.7811 119.602 92.5199C138.402 99.2199 154.722 113.54 165.742 132.98C158.222 125.78 148.382 121.72 139.482 122.28C136.644 117.63 133.383 113.251 129.742 109.2C129.687 109.14 129.621 109.092 129.547 109.059C129.473 109.026 129.393 109.009 129.312 109.009C129.23 109.009 129.15 109.026 129.076 109.059C129.002 109.092 128.936 109.14 128.882 109.2C128.824 109.256 128.778 109.323 128.747 109.397C128.716 109.47 128.7 109.55 128.7 109.63C128.7 109.71 128.716 109.789 128.747 109.863C128.778 109.937 128.824 110.004 128.882 110.06C132.077 114.033 135.023 118.201 137.702 122.54C135.051 122.94 132.495 123.821 130.162 125.14C129.784 125.177 129.409 125.244 129.042 125.34C127.943 125.588 126.826 125.742 125.702 125.8C121.022 125.8 120.842 123.8 119.162 124.02C115.822 124.36 116.802 130.96 124.482 132.36C123.102 136.22 122.482 144.72 125.062 148.36C121.982 148.36 120.002 147.72 119.882 150.86C119.841 151.426 119.841 151.994 119.882 152.56C118.89 151.922 117.767 151.515 116.597 151.37C115.427 151.224 114.239 151.344 113.122 151.72C111.022 152.52 107.022 156.7 105.002 158.44C105.002 157.6 105.002 156.32 104.262 156.24C91.5615 155.18 72.2615 154.88 60.7015 155.2C60.0677 147.04 60.1749 138.84 61.0215 130.7C61.056 130.533 61.0227 130.359 60.9289 130.216C60.8352 130.074 60.6886 129.974 60.5215 129.94C60.3544 129.905 60.1805 129.939 60.038 130.033C59.8954 130.126 59.796 130.273 59.7615 130.44C59.1215 134.04 57.8815 148.72 59.1815 155.26L42.8015 156.34C42.6806 156.351 42.5659 156.399 42.4728 156.477C42.3796 156.555 42.3124 156.66 42.2798 156.777C42.2473 156.894 42.2511 157.018 42.2907 157.133C42.3303 157.248 42.4038 157.348 42.5015 157.42C42.5579 157.47 42.625 157.507 42.6977 157.528C42.7705 157.549 42.847 157.553 42.9215 157.54C63.114 156.303 83.3671 156.437 103.542 157.94C103.634 164.698 105.669 171.286 109.402 176.92C82.7215 196.14 38.8215 208.7 20.9015 181.46C8.00152 162 14.4015 128 38.3215 107.24C49.7469 97.444 63.6477 90.9814 78.5015 88.5599C82.1215 95.4599 95.4015 103.48 98.0015 102.84L98.0215 102.88ZM127.662 127.12C126.642 128.196 125.787 129.416 125.122 130.74C121.382 130.18 119.262 128.22 118.902 126.6C118.622 125.48 119.282 125.02 120.662 125.96C122.832 127.019 125.265 127.422 127.662 127.12ZM137.382 138.14C137.28 138.256 137.22 138.403 137.211 138.558C137.202 138.712 137.244 138.865 137.33 138.993C137.417 139.12 137.544 139.216 137.69 139.264C137.837 139.313 137.996 139.311 138.142 139.26C139.762 138.62 140.522 138.76 140.642 139.06C140.762 139.36 140.122 140.84 138.822 141.48C137.982 141.9 136.362 142.28 135.122 140.02C134.102 138.18 135.842 136.16 135.122 135.74C134.402 135.32 132.362 138.42 134.102 141.14C133.742 141.403 133.312 141.554 132.867 141.572C132.421 141.589 131.981 141.474 131.602 141.24C130.722 140.56 130.122 138.66 131.142 135.24C131.522 133.92 129.282 133.58 129.002 139.24C128.882 140.02 128.022 144.82 127.762 146.44C127.502 148.06 127.142 148.18 127.102 148.2C127.062 148.22 126.882 148.2 126.722 147.98C125.302 146.38 123.602 138.24 126.322 131.98C127.167 129.869 128.612 128.051 130.477 126.75C132.343 125.45 134.548 124.723 136.822 124.66C138.159 124.634 139.482 124.932 140.679 125.528C141.876 126.124 142.912 127 143.697 128.082C144.483 129.165 144.995 130.42 145.191 131.743C145.387 133.066 145.26 134.417 144.822 135.68C144.606 136.352 144.24 136.966 143.751 137.476C143.263 137.985 142.664 138.377 142.002 138.62C141.773 138.229 141.456 137.898 141.076 137.653C140.696 137.408 140.263 137.256 139.813 137.209C139.363 137.163 138.909 137.223 138.486 137.384C138.064 137.546 137.685 137.805 137.382 138.14ZM122.662 155.08C122.416 154.39 121.944 153.805 121.322 153.42L121.562 150.18H131.042C131.042 151.26 131.342 154.44 131.342 154.44C128.437 154.453 125.537 154.667 122.662 155.08ZM128.862 148.38C129.39 146.195 129.771 143.976 130.002 141.74C130.652 142.448 131.535 142.898 132.49 143.009C133.445 143.119 134.407 142.881 135.202 142.34L135.522 142.56C134.666 146.464 134.557 150.495 135.202 154.44H133.202C133.256 152.547 133.047 150.656 132.582 148.82C132.002 148.3 129.742 148.38 128.862 148.38ZM113.462 153.22C114.802 152.885 116.207 152.91 117.535 153.293C118.862 153.676 120.065 154.403 121.022 155.4C121.382 156 121.322 156.2 121.302 156.26C121.282 156.32 120.102 156.48 119.302 156.44C118.12 156.249 116.908 156.416 115.822 156.92C114.173 158.243 113.092 160.146 112.802 162.24C112.502 167.34 127.242 166.7 132.282 166.54C128.562 170.34 117.482 169.48 109.982 174.72C107.361 170.199 105.693 165.19 105.082 160C106.402 159.4 111.342 154.14 113.462 153.22ZM176.002 172.24C171.682 184.86 158.142 181.62 157.582 181.48C148.142 179.1 142.682 170.3 140.622 166.22C142.862 165.7 142.222 163.5 142.002 161.38L159.442 160.98C160.842 163.64 164.162 162.76 164.002 160.1C164.022 159.521 163.839 158.953 163.485 158.495C163.131 158.037 162.627 157.717 162.062 157.591C161.497 157.465 160.905 157.541 160.39 157.806C159.875 158.071 159.469 158.507 159.242 159.04C156.742 158.82 144.442 159.16 141.862 159.44C141.562 154.08 141.862 154.46 136.922 154.48C136.462 150.721 136.462 146.919 136.922 143.16C137.969 143.355 139.052 143.176 139.981 142.653C140.91 142.13 141.625 141.297 142.002 140.3C145.322 139.88 148.662 134.12 145.722 127.96C145.171 126.926 144.413 126.017 143.493 125.291C142.574 124.564 141.515 124.036 140.382 123.74C155.642 123.34 169.462 135.64 174.982 150.28C175.262 150.28 175.442 150.08 174.982 150.28C177.823 157.268 178.183 165.019 176.002 172.24ZM72.0015 364.74C71.3655 367.259 70.8978 369.818 70.6015 372.4C65.7368 372.903 60.8361 372.957 55.9615 372.56C56.2815 369.78 56.5815 367.02 56.8815 364.24L72.0015 364.74ZM338.602 282.92C342.962 279.34 362.242 283.9 359.362 300.5H173.742L172.002 278.34C182.142 274.82 189.582 280.18 192.202 286.7C192.662 287.92 195.242 286.88 191.222 281.86C188.667 278.703 185.06 276.573 181.062 275.86C190.742 257.22 218.142 260.2 223.462 280.24C223.742 281.3 225.322 280.78 225.042 279.72C223.437 273.81 219.663 268.722 214.473 265.471C209.284 262.22 203.059 261.045 197.042 262.18C198.737 258.771 201.247 255.832 204.348 253.623C207.449 251.414 211.047 250.003 214.823 249.515C218.599 249.026 222.437 249.476 225.999 250.823C229.56 252.17 232.734 254.374 235.242 257.24C237.082 259.24 243.242 270.96 245.242 272.34C243.597 275.159 242.568 278.295 242.222 281.54C239.749 282.446 237.501 283.874 235.63 285.728C233.759 287.581 232.31 289.816 231.382 292.28C231.315 292.431 231.312 292.602 231.372 292.756C231.432 292.91 231.55 293.034 231.702 293.1C231.853 293.166 232.024 293.17 232.178 293.11C232.332 293.05 232.455 292.931 232.522 292.78C233.731 289.977 235.651 287.538 238.092 285.703C240.532 283.869 243.408 282.702 246.437 282.318C249.466 281.935 252.542 282.347 255.363 283.516C258.184 284.684 260.651 286.567 262.521 288.98C262.654 289.166 262.855 289.291 263.08 289.328C263.305 289.366 263.536 289.313 263.722 289.18C263.907 289.047 264.033 288.846 264.07 288.621C264.108 288.396 264.054 288.166 263.922 287.98C261.617 284.929 258.452 282.639 254.833 281.406C251.215 280.172 247.309 280.052 243.622 281.06C244.209 277.875 245.436 274.843 247.226 272.145C249.017 269.446 251.335 267.139 254.042 265.36C257.314 263.262 261.065 262.03 264.944 261.78C268.823 261.529 272.702 262.268 276.216 263.928C279.731 265.587 282.767 268.113 285.038 271.267C287.309 274.421 288.742 278.1 289.202 281.96C289.245 282.159 289.359 282.336 289.523 282.457C289.687 282.578 289.89 282.636 290.093 282.619C290.296 282.602 290.486 282.511 290.628 282.364C290.769 282.217 290.852 282.024 290.862 281.82C290.332 277.417 288.628 273.238 285.93 269.72C283.231 266.201 279.636 263.473 275.522 261.82C276.856 258.298 279.072 255.179 281.958 252.759C284.843 250.339 288.301 248.7 292.002 248C303.682 246.2 313.702 255.18 315.182 265.76C312.122 266.267 309.216 267.46 306.684 269.251C304.152 271.042 302.059 273.384 300.562 276.1C300.202 276.78 301.302 277.38 301.682 276.72C303.866 273.029 307.201 270.157 311.176 268.546C315.15 266.934 319.544 266.672 323.682 267.8C327.663 269.068 331.127 271.59 333.556 274.989C335.986 278.389 337.251 282.483 337.162 286.66C337.162 287.2 337.882 287.88 338.422 287.5C338.642 287.36 339.282 286.9 338.622 282.92H338.602ZM222.902 67.1599C236.622 64.7599 250.902 64.3399 270.602 65.7999C273.762 92.9799 274.222 118.58 274.722 145.92C270.882 137.44 266.982 125.06 267.042 116.52C267.023 106.585 264.608 96.802 260.002 87.9999C254.522 77.5399 247.102 70.1399 239.022 78.8199C227.822 90.8199 228.622 105.3 228.842 121.36C228.099 128.502 226.563 135.539 224.262 142.34C223.562 109 221.622 84.4399 222.902 67.1599ZM303.062 194.64C301.59 194.41 300.093 194.41 298.622 194.64L298.822 178.88C298.88 178.523 298.857 178.157 298.753 177.811C298.649 177.464 298.467 177.146 298.222 176.88C293.642 173.04 280.822 160.68 276.582 149.66C276.582 138.06 276.402 126.3 275.942 114.7C286.082 114.4 295.562 114.52 303.542 114.7C304.342 134.2 302.842 168.28 303.062 194.64ZM223.182 248.14C219.132 247.24 214.922 247.377 210.94 248.537C206.957 249.698 203.333 251.845 200.402 254.78C200.262 250.48 199.382 223.76 199.082 215.36L221.802 214.92C221.742 218.98 222.801 244.22 223.182 248.14ZM267.462 130.32C271.122 145.46 277.682 161.64 297.082 178.1C297.082 183.5 296.462 197.16 296.822 202.36C296.422 202.36 266.982 202.56 264.822 202.74C267.059 178.669 267.94 154.49 267.462 130.32ZM229.282 130.62C230.622 155.12 233.082 179.5 236.622 203.18C231.722 203.06 208.742 202.36 205.402 202.52C205.402 199.24 204.582 180.36 204.502 178.52C217.24 165.3 225.851 148.655 229.282 130.62ZM223.282 214.88C224.722 214.88 227.902 215.22 227.722 213.8C226.823 210.673 225.596 207.649 224.062 204.78L236.822 204.96C237.122 206.8 237.402 208.64 237.682 210.48C235.801 212.48 232.002 224.08 231.482 226.18C231.442 226.32 231.435 226.467 231.463 226.609C231.491 226.752 231.552 226.886 231.642 227C232.122 227.6 233.382 227.68 234.722 227.68C228.902 236.9 232.062 248.3 234.282 253.92C231.514 251.493 228.272 249.668 224.762 248.56C225.222 244.9 223.542 218.24 223.302 214.88H223.282ZM233.522 236.56C233.945 233.473 234.949 230.493 236.482 227.78C245.707 228.15 254.946 228.05 264.162 227.48C265.262 231.82 275.281 243.2 262.842 260.3C259.465 260.757 256.223 261.92 253.326 263.712C250.428 265.503 247.939 267.884 246.022 270.7C238.942 260 231.721 249.44 233.542 236.56H233.522ZM265.702 152.12C265.402 172.28 264.161 189.94 262.682 209.26L239.142 209.88C234.702 179.14 232.802 157.14 231.142 131.88C230.682 124.72 230.222 117.3 230.382 110.04C230.642 97.5799 233.182 88.6999 238.382 82.0399C245.742 72.6599 251.702 76.8399 257.542 87.2199C260.895 93.2117 263.202 99.732 264.361 106.5C266.161 116.7 265.802 146.3 265.722 152.12H265.702ZM274.102 261.3C271.224 260.368 268.203 259.961 265.182 260.1C268.546 255.346 270.421 249.698 270.567 243.875C270.713 238.052 269.124 232.317 266.002 227.4C267.302 227.4 270.762 227.4 270.362 226.18C269.682 223.9 267.762 219.16 266.222 215.34C265.222 212.82 264.222 210.64 264.222 210.06C264.342 209 264.822 204.28 264.822 204.28C266.682 204.58 275.582 204.28 278.602 204.28C276.062 212.28 276.402 211.28 275.862 212.66C275.462 213.72 275.262 214.24 275.522 214.66C275.782 215.08 276.842 215.06 279.522 215.12C279.522 226.66 280.502 240 281.002 251.5C277.761 253.987 275.36 257.407 274.122 261.3H274.102ZM280.802 215.1L303.582 215.32C302.856 226.209 302.896 237.136 303.702 248.02C300.268 246.514 296.504 245.924 292.774 246.306C289.045 246.688 285.478 248.029 282.422 250.2C282.002 238.5 281.682 226.48 280.822 215.1H280.802ZM223.002 65.6599C224.382 49.4799 229.702 27.8199 247.002 15.3799C263.642 26.7999 268.182 46.2999 270.382 63.9599C256.202 62.9199 236.242 63.0599 223.022 65.6599H223.002ZM196.002 117.32C200.662 117.32 218.002 117.08 222.002 117.06C222.362 126.66 222.728 136.273 223.102 145.9C219.402 155.5 211.102 170.26 203.322 177.5C202.922 179.5 203.441 192.38 203.542 194.7C202.081 194.84 200.622 194.98 199.262 195.18C198.462 168.26 196.002 133.48 196.002 117.32Z" fill="#67ADF9"/>
<path d="M99.1814 72.1C93.7614 71.68 92.3814 67.74 91.1814 68.1C90.8614 68.1 90.7214 68.52 90.6414 68.74C88.9414 72.44 91.1014 77.04 94.8814 77.04C96.0442 76.9154 97.1513 76.4775 98.0847 75.773C99.0181 75.0686 99.7428 74.124 100.181 73.04C100.248 72.9021 100.268 72.7468 100.24 72.5965C100.212 72.4463 100.137 72.3088 100.025 72.2041C99.9139 72.0994 99.7721 72.0329 99.6204 72.0142C99.4687 71.9955 99.3149 72.0255 99.1814 72.1ZM98.2214 73.48C95.5214 77.08 91.2414 75.48 91.6614 70.54C92.4911 71.4583 93.5028 72.1939 94.6322 72.7001C95.7615 73.2062 96.9839 73.4718 98.2214 73.48ZM250.001 159.54C249.969 159.327 249.862 159.132 249.699 158.992C249.535 158.851 249.327 158.774 249.111 158.774C248.896 158.774 248.688 158.851 248.524 158.992C248.361 159.132 248.253 159.327 248.221 159.54C248.221 162.56 249.221 199.82 249.781 203.86C249.781 204.051 249.857 204.234 249.992 204.369C250.127 204.504 250.31 204.58 250.501 204.58C250.692 204.58 250.876 204.504 251.011 204.369C251.146 204.234 251.221 204.051 251.221 203.86C252.121 191.14 250.421 172.72 250.001 159.54ZM92.0014 62.68C92.6414 62.68 92.8414 62 92.7014 61.3C92.4214 59.9 91.3014 59.82 91.0214 60.62C90.7414 61.42 91.1414 62.68 92.0014 62.68ZM89.8814 54.22C88.981 54.3989 88.1694 54.8822 87.5831 55.5887C86.9968 56.2952 86.6714 57.1819 86.6614 58.1C86.8214 59.14 87.6814 59.14 87.8214 58.38C88.2414 56.24 89.1414 56.38 90.2614 55.7C90.4228 55.6212 90.5521 55.4891 90.6273 55.3261C90.7026 55.163 90.7194 54.979 90.6747 54.8051C90.6301 54.6311 90.5267 54.4779 90.3822 54.3713C90.2377 54.2647 90.0608 54.2113 89.8814 54.22ZM294.161 242.22C294.161 242.6 294.901 242.48 294.981 242.1C295.301 240.74 293.821 225.24 294.061 221.04C294.061 220.5 293.261 220.52 293.221 221.04C292.852 228.114 293.167 235.207 294.161 242.22ZM248.161 258.48C248.561 258.78 249.181 258.3 248.921 257.86C248.161 256.52 247.081 255.48 245.941 253.42C244.192 250.155 243.182 246.546 242.985 242.847C242.788 239.148 243.408 235.452 244.801 232.02C245.021 231.52 244.221 231.22 243.981 231.74C242.281 235.642 241.59 239.909 241.971 244.149C242.352 248.388 243.793 252.463 246.161 256C246.696 256.925 247.371 257.761 248.161 258.48Z" fill="#F4A462"/>
</g>
<defs>
<clipPath id="clip0_2150_23304">
<rect width="400" height="400" fill="white" transform="translate(0.00140381)"/>
</clipPath>
</defs>
</svg>
