<svg width="94" height="24" viewBox="0 0 94 24" fill="none" xmlns="http://www.w3.org/2000/svg">
<g clip-path="url(#clip0_747_285464)">
<path d="M0 3.0008V8.9992L5.98714 12V20.9992L11.9711 24V10.5012H8.97753L17.9582 6.00159V0L5.98714 6.00159L0 3.0008Z" fill="white"/>
<path d="M32.5952 14.2066V19.4971H29.818V14.2513L23.9422 4.50586H26.9103L31.2909 11.8085L35.7129 4.50586H38.4488L32.5952 14.2066Z" fill="white"/>
<path d="M42.489 18.7158C41.2642 18.0525 40.3034 17.1309 39.6036 15.9542C38.9069 14.7775 38.5569 13.4604 38.5569 12.0031C38.5569 10.5457 38.9069 9.22871 39.6036 8.05199C40.3002 6.87527 41.2642 5.95366 42.489 5.29036C43.7137 4.62706 45.0881 4.29541 46.6119 4.29541C48.1357 4.29541 49.51 4.62706 50.7348 5.29036C51.9596 5.95366 52.9203 6.87208 53.6202 8.04242C54.3169 9.21276 54.6668 10.533 54.6668 12.0031C54.6668 13.4732 54.3169 14.7934 53.6202 15.9669C52.9235 17.1373 51.9596 18.0557 50.7348 18.719C49.51 19.3823 48.1357 19.714 46.6119 19.714C45.0881 19.714 43.7137 19.3823 42.489 18.719V18.7158ZM49.3032 16.5952C50.1017 16.1455 50.7284 15.5173 51.1834 14.7105C51.6383 13.9037 51.8673 13.0012 51.8673 11.9999C51.8673 10.9986 51.6383 10.0961 51.1834 9.2893C50.7284 8.48249 50.1017 7.85427 49.3032 7.40463C48.5047 6.95499 47.6076 6.72857 46.6119 6.72857C45.6161 6.72857 44.719 6.95499 43.9205 7.40463C43.122 7.85427 42.4953 8.48249 42.0404 9.2893C41.5855 10.0961 41.3564 10.9986 41.3564 11.9999C41.3564 13.0012 41.5855 13.9037 42.0404 14.7105C42.4953 15.5173 43.122 16.1455 43.9205 16.5952C44.719 17.0448 45.6161 17.2712 46.6119 17.2712C47.6076 17.2712 48.5047 17.0448 49.3032 16.5952Z" fill="white"/>
<path d="M60.479 18.7158C59.2542 18.0525 58.2935 17.1309 57.5936 15.9542C56.8969 14.7775 56.547 13.4604 56.547 12.0031C56.547 10.5457 56.8969 9.22871 57.5936 8.05199C58.2903 6.87527 59.2542 5.95366 60.479 5.29036C61.7038 4.62706 63.0781 4.29541 64.6019 4.29541C66.1258 4.29541 67.5001 4.62706 68.7248 5.29036C69.9496 5.95366 70.9104 6.87208 71.6103 8.04242C72.307 9.21276 72.6569 10.533 72.6569 12.0031C72.6569 13.4732 72.307 14.7934 71.6103 15.9669C70.9136 17.1373 69.9496 18.0557 68.7248 18.719C67.5001 19.3823 66.1258 19.714 64.6019 19.714C63.0781 19.714 61.7038 19.3823 60.479 18.719V18.7158ZM67.2933 16.5952C68.0918 16.1455 68.7185 15.5173 69.1734 14.7105C69.6283 13.9037 69.8574 13.0012 69.8574 11.9999C69.8574 10.9986 69.6283 10.0961 69.1734 9.2893C68.7185 8.48249 68.0918 7.85427 67.2933 7.40463C66.4948 6.95499 65.5977 6.72857 64.6019 6.72857C63.6062 6.72857 62.7091 6.95499 61.9106 7.40463C61.1121 7.85427 60.4854 8.48249 60.0305 9.2893C59.5755 10.0961 59.3465 10.9986 59.3465 11.9999C59.3465 13.0012 59.5755 13.9037 60.0305 14.7105C60.4854 15.5173 61.1121 16.1455 61.9106 16.5952C62.7091 17.0448 63.6062 17.2712 64.6019 17.2712C65.5977 17.2712 66.4948 17.0448 67.2933 16.5952Z" fill="white"/>
<path d="M85.3915 19.4971L82.3343 15.1059C82.207 15.1219 82.013 15.1283 81.7585 15.1283H78.3832V19.4971H75.6059V4.50269H81.7585C83.0533 4.50269 84.1826 4.71634 85.1434 5.14366C86.1041 5.57098 86.8421 6.18645 87.3543 6.98687C87.8665 7.7873 88.1242 8.73761 88.1242 9.8346C88.1242 10.9316 87.8506 11.9329 87.3003 12.7461C86.7531 13.5593 85.9641 14.1684 84.9398 14.567L88.3787 19.4939H85.3883L85.3915 19.4971ZM84.3862 7.63104C83.7595 7.11762 82.8401 6.85932 81.6312 6.85932H78.3832V12.8354H81.6312C82.8433 12.8354 83.7595 12.5739 84.3862 12.0541C85.0129 11.5343 85.3247 10.7945 85.3247 9.83779C85.3247 8.88111 85.0129 8.14446 84.3862 7.63104Z" fill="white"/>
<path d="M91.2227 4.50269H94V19.4939H91.2227V4.50269Z" fill="white"/>
</g>
<defs>
<clipPath id="clip0_747_285464">
<rect width="94" height="24" fill="white"/>
</clipPath>
</defs>
</svg>
