<svg width="24" height="24" viewBox="0 0 24 24" fill="none" xmlns="http://www.w3.org/2000/svg">
<path d="M12.001 15L9.00098 12M12.001 15C13.3978 14.4687 14.7379 13.7987 16.001 13M12.001 15V20C12.001 20 15.031 19.45 16.001 18C17.081 16.38 16.001 13 16.001 13M9.00098 12C9.53312 10.6194 10.2032 9.29607 11.001 8.05C12.1662 6.18699 13.7886 4.65305 15.714 3.5941C17.6394 2.53514 19.8036 1.98637 22.001 2C22.001 4.72 21.221 9.5 16.001 13M9.00098 12L4.00098 12C4.00098 12 4.55098 8.97002 6.00098 8.00002C7.62098 6.92002 11.001 8.00002 11.001 8.00002M4.50098 16.5001C3.00098 17.7601 2.50098 21.5001 2.50098 21.5001C2.50098 21.5001 6.24098 21.0001 7.50098 19.5001C8.21098 18.6601 8.20098 17.3701 7.41098 16.5901C7.02228 16.2191 6.51027 16.0047 5.9732 15.9881C5.43614 15.9715 4.91185 16.1538 4.50098 16.5001Z" stroke="#8942FE" stroke-width="2" stroke-linecap="round" stroke-linejoin="round"/>
</svg>
