<svg width="24" height="24" viewBox="0 0 24 24" fill="none" xmlns="http://www.w3.org/2000/svg">
<path d="M6.00098 9H4.50098C3.83794 9 3.20205 8.73661 2.73321 8.26777C2.26437 7.79893 2.00098 7.16304 2.00098 6.5C2.00098 5.83696 2.26437 5.20107 2.73321 4.73223C3.20205 4.26339 3.83794 4 4.50098 4H6.00098M6.00098 9V2H18.001V9M6.00098 9C6.00098 10.5913 6.63312 12.1174 7.75834 13.2426C8.88355 14.3679 10.4097 15 12.001 15C13.5923 15 15.1184 14.3679 16.2436 13.2426C17.3688 12.1174 18.001 10.5913 18.001 9M18.001 9H19.501C20.164 9 20.7999 8.73661 21.2687 8.26777C21.7376 7.79893 22.001 7.16304 22.001 6.5C22.001 5.83696 21.7376 5.20107 21.2687 4.73223C20.7999 4.26339 20.164 4 19.501 4H18.001M4.00098 22H20.001M10.001 14.6599V16.9999C10.001 17.5499 9.53098 17.9799 9.03098 18.2099C7.85098 18.7499 7.00098 20.2399 7.00098 21.9999M14.001 14.6599V16.9999C14.001 17.5499 14.471 17.9799 14.971 18.2099C16.151 18.7499 17.001 20.2399 17.001 21.9999" stroke="#8942FE" stroke-width="2" stroke-linecap="round" stroke-linejoin="round"/>
</svg>
