<svg width="24" height="24" viewBox="0 0 24 24" fill="none" xmlns="http://www.w3.org/2000/svg">
<path d="M11.0015 14H13.0015C13.5319 14 14.0406 13.7893 14.4157 13.4142C14.7908 13.0391 15.0015 12.5304 15.0015 12C15.0015 11.4696 14.7908 10.9609 14.4157 10.5858C14.0406 10.2107 13.5319 10 13.0015 10H10.0015C9.40146 10 8.90147 10.2 8.60147 10.6L3.00146 16M7.00146 20L8.60147 18.6C8.90147 18.2 9.40146 18 10.0015 18H14.0015C15.1015 18 16.1015 17.6 16.8015 16.8L21.4015 12.4C21.7874 12.0354 22.0126 11.5323 22.0276 11.0016C22.0426 10.4709 21.8461 9.95592 21.4815 9.57003C21.1168 9.18414 20.6138 8.95892 20.083 8.94392C19.5523 8.92891 19.0374 9.12535 18.6515 9.49003L14.4515 13.39M2.00146 15L8.00146 21M19.5016 8.5C20.2016 7.8 21.0016 6.9 21.0016 5.8C21.0715 5.18893 20.933 4.57216 20.6086 4.04964C20.2841 3.52712 19.7927 3.12947 19.214 2.92114C18.6353 2.71281 18.0032 2.706 17.4202 2.90182C16.8371 3.09763 16.3373 3.4846 16.0016 4C15.6446 3.52458 15.1447 3.17613 14.5751 3.00578C14.0055 2.83544 13.3963 2.85219 12.8369 3.05356C12.2775 3.25494 11.7974 3.63034 11.4671 4.12465C11.1368 4.61896 10.9736 5.20614 11.0016 5.8C11.0016 7 11.8016 7.8 12.5016 8.6L16.0016 12L19.5016 8.5Z" stroke="#8942FE" stroke-width="2" stroke-linecap="round" stroke-linejoin="round"/>
</svg>
