<svg width="400" height="400" viewBox="0 0 400 400" fill="none" xmlns="http://www.w3.org/2000/svg">
<path d="M30.4766 119.624C20.5706 104.356 15.5046 85.7516 19.0586 66.8956C20.7458 57.9022 24.192 49.3304 29.1992 41.6718C34.2066 34.0132 40.6766 27.4186 48.2382 22.266C55.7998 17.1133 64.3042 13.5042 73.2636 11.6456C82.2232 9.7869 91.4614 9.7153 100.449 11.4348C109.436 13.1544 117.995 16.6313 125.636 21.666C133.276 26.7008 139.848 33.1944 144.973 40.7746C150.099 48.3546 153.677 56.872 155.504 65.838C157.33 74.8042 157.368 84.0426 155.617 93.0236C151.095 117.15 137.979 133.536 112.379 145.128C100.001 150.736 53.4506 155.03 30.4766 119.624ZM51.7766 69.9396C53.4306 75.341 56.431 80.2332 60.4958 84.1562C64.5604 88.0792 69.556 90.9042 75.0128 92.3654C80.4694 93.8268 86.2082 93.8766 91.6894 92.51C97.1708 91.1434 102.215 88.4056 106.347 84.5536C129.989 62.5016 110.947 22.9996 78.6686 27.5036C73.957 28.212 69.4528 29.925 65.4612 32.5264C61.4696 35.1278 58.0838 38.557 55.5336 42.5816C52.9832 46.606 51.3278 51.1318 50.6796 55.852C50.0314 60.5722 50.4056 65.3766 51.7766 69.9396ZM62.7206 141.312C62.5546 141.878 63.0626 141.998 63.5886 142.172C97.2026 153.312 127.895 140.892 143.851 115.63C144.265 114.978 144.297 114.816 143.699 114.334C122.581 93.7276 70.0146 107.912 62.7206 141.312Z" fill="#67ADF9"/>
<path d="M93.7587 46.6976C93.7187 54.8096 83.6927 58.2976 83.2787 65.1916C83.0927 68.2676 86.7967 70.3156 84.4927 72.1916C82.6387 73.6956 80.3847 69.7916 79.7547 66.2656C79.7173 65.108 79.8119 63.9498 80.0367 62.8136C81.4587 55.8756 90.6027 52.6336 89.8147 46.0936C89.0267 39.5536 81.7387 40.7156 76.5347 45.8416C74.6147 47.7316 75.0427 49.1236 74.4747 50.2016C73.7247 51.6176 71.8087 50.6556 71.6447 49.0736C70.9127 42.0296 85.1247 32.0876 92.2187 41.7896C93.2583 43.2116 93.7997 44.9368 93.7587 46.6976Z" fill="#67ADF9"/>
<path d="M86.0985 82.1098C85.7335 81.9036 85.4213 81.6154 85.1869 81.2678C84.9525 80.9202 84.8021 80.5228 84.7475 80.1072C84.6931 79.6914 84.7359 79.2688 84.8729 78.8726C85.0097 78.4762 85.2369 78.1172 85.5365 77.8238C85.7951 77.5642 86.1085 77.3658 86.4539 77.243C86.7993 77.1204 87.1677 77.0766 87.5321 77.115C87.8967 77.1534 88.2479 77.273 88.5601 77.4648C88.8723 77.6566 89.1377 77.916 89.3365 78.2238C90.4825 80.1998 88.4505 83.3058 86.0985 82.1098Z" fill="#67ADF9"/>
<path d="M41.0847 358.292C69.4527 350.524 138.811 341.966 168.019 338.514C238.159 330.224 311.191 323.284 381.219 320.042C381.431 320.04 381.637 320.12 381.793 320.266C381.949 320.41 382.041 320.61 382.053 320.822C382.065 321.036 381.993 321.244 381.855 321.406C381.717 321.568 381.521 321.67 381.309 321.69C294.095 327.49 92.8167 348.772 41.8667 361.662C40.8147 361.926 40.0467 358.576 41.0847 358.292Z" fill="#67ADF9"/>
<path d="M285.001 229.7C284.559 228.7 286.557 229.828 287.297 227.75C289.059 222.794 289.081 221.24 286.789 219.524C284.061 217.764 281.123 216.352 278.043 215.324C277.273 215.088 278.937 214.324 280.829 212.02C281.309 211.438 281.159 211.662 285.731 213.944C291.309 216.73 291.657 216.422 292.331 218.214C293.207 220.284 294.821 221.954 296.861 222.898C300.999 225.008 305.023 227.016 308.325 223.508C308.737 223.07 308.709 223.12 311.017 224.338C321.583 229.912 321.293 228.824 321.543 229.992C321.833 231.23 322.411 232.382 323.229 233.354C324.047 234.328 325.081 235.094 326.251 235.592C329.641 237.41 331.351 238.688 334.779 237.516C344.779 234.096 350.717 219.968 346.157 215.472C342.251 211.624 340.131 208.968 334.733 210.154C333.897 210.338 334.567 210.344 324.029 202.968C322.935 202.202 322.919 202.01 323.089 201.386C323.261 200.74 323.277 200.062 323.135 199.408C322.993 198.754 322.697 198.144 322.271 197.628C316.389 189.858 311.071 190.138 309.171 190.256C308.989 190.277 308.803 190.256 308.629 190.194C308.455 190.132 308.299 190.031 308.171 189.898C299.571 179.992 238.927 137.878 224.195 127.95C222.731 126.962 223.647 126.628 223.259 125.264C221.859 120.33 214.371 113.636 209.859 111.898C192.011 105.024 170.267 128 172.143 146.912C173.175 157.312 178.463 161.24 187.989 165.016C189.676 165.671 191.5 165.894 193.295 165.664C195.17 165.142 196.971 164.381 198.653 163.4C200.419 162.23 199.485 165.21 255.253 197.456C256.145 197.972 255.777 197.928 255.745 198.94C255.577 202.888 256.449 206.808 258.275 210.312C258.697 211.112 258.075 210.712 255.455 210.634C248.541 210.414 247.935 212.37 247.911 219.178C247.911 220.6 248.731 221.24 250.153 222.036C252.237 223.206 252.317 223.262 252.197 223.672C251.973 224.436 195.341 383.828 195.253 386.322C195.187 388.218 197.195 389.662 199.053 389.996C199.483 390.074 201.205 385.818 204.293 378.054C211.583 359.728 230.263 314.98 233.597 306.484C261.689 234.884 257.631 244.596 261.645 234.726C262.223 233.306 262.207 234.504 262.541 240.104C262.699 242.742 271.829 372.752 272.357 378.95C272.833 384.504 273.063 384.492 273.823 384.55C274.671 384.764 275.559 384.768 276.409 384.564C277.261 384.36 278.049 383.952 278.709 383.378C279.749 382.118 279.409 381.672 278.945 368.578C278.681 361.144 274.291 238.7 274.327 238.696C274.327 233.496 320.679 348.94 336.251 383.6C336.883 385 337.735 384.336 339.923 383.262C340.717 382.71 341.289 381.894 341.535 380.958C341.781 380.022 341.687 379.03 341.269 378.158C334.847 360.89 285.001 229.7 285.001 229.7ZM345.313 216.7C347.267 218.802 346.669 224.382 342.913 229.626C340.273 233.31 335.409 237.694 331.271 236.06C328.871 235.114 327.903 232.46 329.483 227.46C331.753 220.258 341.323 212.4 345.311 216.698L345.313 216.7ZM337.815 211.5C339.197 211.694 340.475 212.35 341.437 213.362C341.611 213.518 342.179 214.098 341.119 214.102C335.139 214.8 327.529 223.768 327.119 230.842C326.961 233.502 327.519 233.892 326.709 233.606C321.087 231.636 322.665 223.54 327.163 217.686C328.691 215.736 330.533 214.054 332.615 212.71C334.173 211.76 335.995 211.336 337.813 211.5H337.815ZM332.215 210.526C333.345 211.26 331.153 210.568 326.921 215.326C318.861 224.38 323.071 228.652 320.121 227.36C318.903 226.826 316.577 225.502 311.485 222.858C303.285 218.6 303.367 218.644 303.485 217.726C304.167 214.044 305.681 210.566 307.911 207.558C309.821 204.788 312.239 202.404 315.035 200.534C315.807 199.996 316.271 199.612 317.265 200.302C318.755 201.344 322.359 204.128 332.201 210.526H332.215ZM315.311 193.144C318.413 195.204 321.151 198.144 319.957 197.588C316.807 196.12 313.041 199.426 310.207 202.068C306.175 205.82 303.277 210.628 301.841 215.944C301.489 217.02 301.355 218.156 301.445 219.284C301.535 220.412 301.847 221.512 302.365 222.518C302.585 222.86 303.089 223.718 301.965 223.376C299.601 222.676 297.395 221.528 295.465 219.994C293.519 218.376 293.097 214.92 293.127 212.478C293.269 200.318 307.527 187.98 315.301 193.144H315.311ZM191.277 163.266C191.051 163.596 190.653 163.536 190.277 163.394C183.695 160.91 175.705 157.836 174.477 148.23C172.677 134.102 182.807 118.606 197.077 114.03C200.921 112.546 205.163 112.439 209.077 113.728C213.053 115.712 216.557 118.526 219.351 121.98C217.677 121.341 215.867 121.134 214.091 121.38C198.675 123.244 181.441 153.596 190.569 162.442C190.889 162.752 191.363 163.138 191.277 163.266ZM191.049 155.362C190.825 155.268 190.644 155.095 190.539 154.877C190.433 154.659 190.41 154.41 190.475 154.176C193.689 135.348 209.413 123.564 213.507 123.712C214.249 123.662 214.191 123.6 220.439 127.974C245.757 145.692 281.985 169.924 306.765 190.512C307.711 191.298 301.197 191.388 295.009 200.552C289.321 208.976 292.169 215.402 290.883 214.724C241.959 188.976 195.907 157.862 191.049 155.362ZM250.949 212.762C252.149 211.466 258.221 212.562 258.949 212.642C259.279 212.658 259.601 212.75 259.889 212.908C260.179 213.068 260.427 213.292 260.617 213.562C262.333 215.632 264.695 217.066 267.323 217.632C269.951 218.198 272.693 217.864 275.109 216.684C275.511 216.406 276.003 216.286 276.487 216.35C279.331 217.224 282.065 218.418 284.639 219.91C292.651 224.938 271.177 223.208 256.425 217.126C254.885 216.484 249.811 213.978 250.949 212.756V212.762ZM281.083 227.71C263.987 227.764 249.455 221.128 249.549 219.262C249.683 216.61 249.625 214.788 250.429 215.536C256.335 221.024 279.139 225.624 286.117 224.118C286.485 224.038 286.557 224.154 286.517 224.42C286.363 225.294 286.147 226.156 285.873 227C285.367 227.948 284.337 227.694 281.083 227.704V227.71Z" fill="#67ADF9"/>
<path d="M332.096 232.346C333.344 235.346 338.612 232.334 341.482 227.584C342.788 225.424 344.072 223.084 343.654 220.928C343.154 218.328 340.17 218.62 338.22 220.086C334.622 222.788 330.87 228.522 332.096 232.346Z" fill="#67ADF9"/>
<path d="M92.3747 225.234C94.5107 225.234 94.4167 225.354 94.3747 224.634C94.3747 224.634 94.0407 221.29 93.7387 217.188C93.6447 215.912 96.3867 214.67 96.6547 222.214C96.7747 225.614 96.9587 225.414 97.5507 225.428C105.115 225.588 105.213 225.212 105.483 225.86C105.729 226.46 102.455 227.378 101.825 227.496C97.2427 228.348 97.2247 227.496 97.2247 228.768C97.2807 237.254 97.2567 235.548 97.4707 237.292C97.5127 237.626 97.1467 237.618 97.0167 237.518C95.6787 236.492 95.0167 231.646 94.9647 230.482C94.8327 227.834 94.6347 227.994 94.1107 227.954C90.3567 227.666 89.4447 227.744 89.3847 226.888C89.2587 225.128 90.6007 225.234 92.3747 225.234Z" fill="#F4A462"/>
<path d="M239.419 46.7364C239.419 50.9364 239.237 50.8564 239.961 50.8584C242.839 50.8584 243.561 50.9524 244.635 51.0144C245.709 51.0764 245.611 51.8364 245.093 52.1544C243.661 53.0184 242.017 53.4684 240.345 53.4544C239.085 53.5764 239.675 53.1504 239.039 59.0084C238.677 62.3584 238.367 63.6924 237.719 63.2264C236.529 62.3704 236.743 56.6864 236.553 54.0424C236.509 53.4064 236.645 53.3464 233.449 53.3524C232.829 53.3524 231.991 53.4264 231.809 52.6704C231.531 51.5144 231.727 50.9484 234.009 50.8704C236.643 50.7744 236.737 50.9604 236.763 50.3744C236.815 47.8452 237.005 45.3206 237.333 42.8124C237.333 42.5376 237.443 42.274 237.637 42.0798C237.831 41.8856 238.095 41.7764 238.369 41.7764C238.643 41.7764 238.907 41.8856 239.101 42.0798C239.295 42.274 239.405 42.5376 239.405 42.8124C239.477 44.1192 239.481 45.429 239.419 46.7364Z" fill="#F4A462"/>
<path d="M344.449 116.06C344.977 116.224 343.925 117.185 343.049 117.569C342.069 117.873 341.057 118.067 340.033 118.147C339.799 118.183 339.353 118.147 339.279 118.509C339.005 119.873 338.889 121.833 338.353 125.109C337.953 127.557 337.531 127.731 337.153 127.789C336.859 127.833 336.353 127.451 336.389 125.221C336.437 122.689 336.575 119.261 336.645 118.857C336.735 118.349 335.749 118.469 333.173 118.745C332.915 118.774 332.657 118.711 332.441 118.566C332.227 118.422 332.069 118.206 331.999 117.956C331.929 117.707 331.951 117.441 332.059 117.206C332.167 116.97 332.355 116.781 332.591 116.672C333.749 116.094 335.005 115.736 336.295 115.614C336.525 115.56 336.791 115.718 336.921 115.35C337.383 114.054 337.261 110.805 337.685 109.151C338.137 107.385 339.419 107.904 339.453 109.254C339.675 118.722 338.297 114.148 344.449 116.06Z" fill="#F4A462"/>
</svg>
