<svg width="512" height="150" viewBox="0 0 512 150" fill="none" xmlns="http://www.w3.org/2000/svg">
<rect width="8.97303" height="16.5807" transform="matrix(0.394829 -0.918755 0.928937 0.370237 78.6592 106.594)" fill="#00D4A2"/>
<rect width="9.15396" height="16.2574" transform="matrix(0.830165 -0.557517 0.5865 0.80995 364.733 12.2537)" fill="#00D4A2"/>
<rect width="9.2646" height="16.0532" transform="matrix(0.999998 -0.00184062 0.00198463 0.999998 423.921 88.8674)" fill="#00D4A2"/>
<rect width="9.0237" height="16.4914" transform="matrix(0.555387 0.831592 -0.850132 0.52657 26.585 51.8005)" fill="#004BAC"/>
<rect width="8.98639" height="16.5573" transform="matrix(0.443141 0.896452 -0.909022 0.416748 148.95 65.7166)" fill="#004BAC"/>
<rect width="9.13637" height="16.2894" transform="matrix(0.79919 -0.601078 0.629869 0.776701 126.995 12.6423)" fill="#FFD064"/>
<rect width="9.09926" height="16.3565" transform="matrix(0.728884 -0.684638 0.711585 0.7026 304.56 6.72974)" fill="#FFD064"/>
<rect width="9.25938" height="16.0629" transform="matrix(0.992761 -0.120105 0.12935 0.991599 460.421 35.8123)" fill="#FFD064"/>
<rect width="9.0237" height="16.4914" transform="matrix(0.555393 0.831588 -0.850128 0.526576 396.51 67.9504)" fill="#FE598B"/>
<path d="M350.429 81.2502L351.895 85.064L355.855 86.4752L351.895 87.8865L350.429 91.7002L348.964 87.8865L345.004 86.4752L348.964 85.064L350.429 81.2502Z" fill="#F37359"/>
<path d="M471.272 142.051L472.338 144.824L475.218 145.851L472.338 146.877L471.272 149.651L470.206 146.877L467.326 145.851L470.206 144.824L471.272 142.051Z" fill="#00D3A3"/>
<path d="M477.683 59.4001L479.149 63.2139L483.109 64.6251L479.149 66.0364L477.683 69.8501L476.218 66.0364L472.258 64.6251L476.218 63.2139L477.683 59.4001Z" fill="#0044A2"/>
<ellipse cx="55.9703" cy="86.9501" rx="3.94586" ry="3.8" fill="#004AA5"/>
<ellipse cx="70.767" cy="43.2506" rx="2.95939" ry="2.85" fill="#F8CA7C"/>
<ellipse cx="181.958" cy="107.35" rx="2.95939" ry="2.85" fill="#F8CA7C"/>
</svg>
