<svg width="400" height="400" viewBox="0 0 400 400" fill="none" xmlns="http://www.w3.org/2000/svg">
<path d="M253.601 90.8804C236.561 98.8804 234.581 119.7 230.941 136.04C229.981 141.62 219.961 153.14 222.481 152.04C223.341 151.72 281.281 128.22 290.141 124.56C291.261 123.86 295.281 123.42 290.141 121.88C287.489 120.331 285.22 118.205 283.501 115.66C273.641 104.12 272.461 84.4604 253.601 90.8804ZM233.461 129.08C234.801 113.08 247.881 79.6804 267.461 96.8204C273.461 103.46 276.661 121.1 285.621 123.62C280.201 125.48 232.681 144.02 226.841 146.86C230.314 141.486 232.573 135.418 233.461 129.08ZM292.341 148C283.021 152 222.581 177.04 219.581 178.48C218.721 191.88 219.041 239.72 220.541 238.8C225.421 236.92 284.841 205.1 285.321 204.14C285.261 201.78 294.421 146.44 292.341 148ZM286.601 151.42C285.801 156.14 279.541 203.88 279.541 203.88C279.541 203.88 276.061 205.7 270.641 208.42C271.221 195.24 273.581 160.86 273.801 156.78L286.601 151.42ZM273.261 157C272.461 164 270.001 206 270.001 208.8C265.661 211.04 260.181 213.84 254.301 216.8C254.301 211.02 254.561 168.8 254.301 164.8C260.561 162.14 266.901 159.56 273.261 156.94V157ZM253.721 165C253.501 168.52 253.221 214.6 253.181 217.28L238.601 224.62C238.441 211.18 237.701 175.86 237.481 171.68L253.721 165ZM220.001 178.8C224.561 177.18 235.761 172.36 236.881 171.88C236.721 179.28 237.641 222.18 237.681 225.02C231.421 228.18 225.421 231.14 220.541 233.5C220.001 219.66 220.121 178.84 220.001 178.8ZM374.941 238.58C381.101 239.98 379.341 246.08 380.361 248.06C382.181 246.84 382.121 239 386.621 239.06C388.981 236.92 380.041 240.46 381.541 228.4C381.861 226.9 380.301 226.4 380.621 228.94C380.677 231.199 380.087 233.426 378.921 235.36C377.261 238.32 373.441 237.14 374.941 238.58ZM380.681 234.24C380.699 235.258 381.049 236.242 381.677 237.044C382.305 237.845 383.177 238.42 384.161 238.68C382.161 239.5 381.221 242.82 380.941 243.78C380.887 242.645 380.545 241.543 379.947 240.577C379.348 239.611 378.513 238.814 377.521 238.26C378.37 237.952 379.116 237.412 379.675 236.702C380.233 235.991 380.582 235.139 380.681 234.24ZM326.421 142.36C334.821 143.7 333.001 149.98 333.641 151.26C335.781 151.58 333.421 143.26 342.001 142.42C342.801 142.42 343.081 142.26 342.761 141.62C342.061 140.92 333.961 142.14 334.921 132.4C334.921 132.08 334.401 131.8 334.081 132.4C334.001 144.18 324.001 140 326.421 142.36ZM334.281 137.8C334.707 138.808 335.343 139.712 336.146 140.454C336.95 141.195 337.903 141.757 338.941 142.1C337.895 142.404 336.932 142.942 336.124 143.673C335.317 144.404 334.687 145.31 334.281 146.32C333.933 145.292 333.342 144.362 332.559 143.61C331.776 142.858 330.823 142.306 329.781 142C330.809 141.705 331.753 141.17 332.535 140.441C333.317 139.711 333.915 138.806 334.281 137.8ZM192.001 39.7604C202.601 39.1204 198.761 49.7604 201.101 47.2804C201.101 46.4604 201.441 39.6004 207.921 39.2804C209.521 36.4404 200.841 42.1204 200.141 28.5604C199.661 28.5604 199.661 28.7204 199.601 30.1804C198.801 41.0604 189.481 37.6204 192.001 39.7604ZM199.761 34.1404C199.973 35.3575 200.54 36.4849 201.39 37.3814C202.241 38.2779 203.337 38.9037 204.541 39.1804C202.826 40.0209 201.46 41.4364 200.681 43.1804C200.315 42.111 199.67 41.1591 198.812 40.4239C197.953 39.6888 196.914 39.1972 195.801 39.0004C196.788 38.5557 197.657 37.8835 198.334 37.0388C199.012 36.194 199.48 35.2008 199.701 34.1404H199.761ZM71.1807 130.68C78.0007 131.28 77.3407 135.02 78.9007 138.14C80.4007 134 81.6407 131.48 86.2407 131C87.3607 128.7 78.8007 132.5 79.3207 121.84C78.0407 120.08 78.6407 123.34 78.4207 125.06C78.3519 125.771 78.139 126.46 77.7952 127.086C77.4514 127.712 76.9837 128.261 76.4207 128.7C74.4007 130.52 69.2607 128.96 71.1807 130.68ZM78.9607 126.68C79.3127 127.635 79.883 128.494 80.6262 129.188C81.3694 129.883 82.2647 130.394 83.2407 130.68C81.3599 131.472 79.8461 132.943 79.0007 134.8C78.671 133.784 78.1143 132.856 77.3728 132.087C76.6312 131.318 75.7243 130.727 74.7207 130.36C75.6657 130.134 76.5431 129.686 77.2804 129.053C78.0177 128.42 78.5937 127.62 78.9607 126.72V126.68ZM389.781 330C392.301 317.3 355.561 316.94 358.121 329.26C355.081 344.18 393.161 344.34 389.781 330ZM359.421 325.78C363.421 318.06 393.121 320.8 388.181 328.94C382.941 335.22 356.521 333.24 359.421 325.86V325.78ZM388.781 333.48C386.141 343.48 355.081 341.68 358.781 328.5C363.981 335.58 385.241 334.66 389.161 329.04C389.255 330.558 389.127 332.08 388.781 333.56V333.48ZM262.001 357.3C257.501 349.3 238.001 350.34 232.801 354.4C229.581 356.4 229.861 364.4 232.361 367.06C239.601 373.06 253.481 372.14 259.421 368.5C263.301 365.88 262.341 361.64 262.001 357.3ZM232.001 356.76C236.001 349.06 265.701 351.78 260.781 359.92C255.421 366.14 229.021 364.16 232.001 356.76ZM261.421 364.48C258.521 374.48 227.721 372.68 231.421 359.5C236.621 366.56 257.881 365.66 261.801 359.98C261.785 361.492 261.624 362.999 261.321 364.48H261.421Z" fill="#F4A462"/>
<path d="M363.761 310.701C367.761 310.101 369.001 300.941 368.461 298.101C375.221 296.541 386.941 293.181 383.461 283.901C382.781 280.041 381.001 277.521 376.501 277.361C380.681 276.841 381.321 272.701 381.701 268.681C382.881 256.681 367.701 259.361 361.021 254.981C367.501 252.521 364.561 245.341 362.581 240.401C360.321 237.021 355.181 236.401 351.321 236.761C348.801 228.881 345.061 226.041 336.801 227.921C337.601 218.181 323.781 216.081 316.561 218.281C315.398 216.511 313.803 215.067 311.928 214.084C310.053 213.101 307.958 212.611 305.841 212.661C304.821 206.821 297.381 205.361 294.221 204.941C294.541 202.941 303.221 138.781 304.021 133.261C307.761 113.701 294.801 111.821 287.241 103.741C280.441 94.7405 274.821 83.3805 269.361 82.2605C269.081 82.1405 268.501 81.8205 267.581 81.4005C235.281 65.6805 185.421 50.6005 153.681 44.8005C149.139 45.5281 144.65 46.5503 140.241 47.8605C111.841 59.1205 121.601 82.0005 107.561 91.1005C96.0011 98.3805 98.3411 106.421 98.8811 115.361C100.761 137.841 107.661 187.921 108.101 190.161C100.101 191.701 99.5811 198.021 102.101 203.661C95.2411 201.661 84.9011 203.661 82.3211 211.161C82.1011 211.741 82.3211 212.001 81.3611 211.901C74.3411 212.341 63.6811 215.501 66.5211 224.281C57.0811 224.121 40.6411 233.821 48.3611 243.721C40.9611 245.061 32.6011 250.161 36.3611 258.361C30.3611 260.761 23.0211 271.001 27.1011 276.021C14.4011 275.341 4.6411 282.561 13.2811 294.141C7.1211 301.261 14.3411 312.621 23.5611 311.121C26.3011 328.421 44.7811 327.461 54.1411 318.041C61.5411 322.541 74.4011 324.241 79.8211 318.361C83.9411 322.901 92.6611 324.141 97.2211 319.421C105.681 324.141 121.221 321.841 125.681 314.281C128.141 322.161 142.761 322.281 148.181 319.801C142.661 325.421 146.561 331.701 152.181 335.441C158.181 338.721 166.701 336.201 172.541 332.761C172.662 333.794 173.088 334.769 173.765 335.56C174.441 336.35 175.338 336.922 176.341 337.201C172.341 339.301 171.961 341.661 172.341 346.481C171.801 361.161 210.801 360.241 205.021 343.381C211.181 351.941 241.021 349.901 236.781 336.401C241.091 338.827 246.103 339.703 250.981 338.881C250.661 345.041 259.661 346.101 264.321 345.301C258.761 361.861 282.601 362.601 292.141 357.881C295.821 355.881 295.401 352.481 295.401 348.561C296.101 341.761 284.201 340.701 279.961 340.321C284.201 337.741 281.141 331.741 280.881 327.201C285.001 336.681 302.101 335.201 308.481 329.821C313.881 339.561 334.821 336.621 339.761 328.701C341.901 326.121 339.481 316.481 337.501 314.381C339.466 312.939 341.141 311.141 342.441 309.081C345.645 310.935 349.225 312.043 352.916 312.324C356.607 312.604 360.314 312.049 363.761 310.701ZM367.761 298.421C369.001 307.101 348.261 304.741 344.841 302.541C347.621 292.701 341.141 285.141 331.881 285.301C338.621 280.041 331.181 276.401 338.201 276.301C335.521 286.961 343.721 291.461 352.761 291.781C353.681 299.121 361.981 299.381 367.721 298.261C367.753 298.307 367.767 298.364 367.761 298.421ZM328.441 313.361C314.581 315.621 316.981 299.701 322.341 292.741C325.881 287.861 335.741 281.861 338.941 290.061C341.781 299.061 337.601 310.541 328.441 313.361ZM306.701 321.141C305.081 327.241 288.581 327.141 284.701 325.541C281.061 324.841 278.701 321.541 280.701 318.201C286.321 309.841 305.661 307.481 310.701 314.701C308.461 315.841 306.101 318.361 306.701 321.141ZM279.481 313.141C280.971 313.562 282.498 313.836 284.041 313.961C282.608 314.82 281.335 315.924 280.281 317.221C280.259 315.791 279.989 314.377 279.481 313.041V313.141ZM278.741 332.321C274.881 335.981 269.401 337.301 263.841 337.801C256.221 339.181 245.521 334.901 253.601 328.261C259.661 323.181 286.661 320.221 278.741 332.221V332.321ZM264.421 323.481C245.361 327.661 254.421 332.601 243.001 330.821C233.301 330.621 230.361 324.821 238.821 320.541C245.081 316.741 265.221 315.521 264.421 323.381V323.481ZM203.301 334.321C203.301 343.861 205.941 338.961 198.201 336.561C203.721 329.981 198.421 323.601 205.821 320.801C213.041 322.421 213.821 321.461 219.641 318.141C221.521 318.501 223.981 325.901 221.641 326.281C216.001 325.861 202.341 327.721 203.301 334.221V334.321ZM190.821 335.221C195.701 331.361 199.121 323.121 194.821 317.321C202.521 320.441 202.001 330.181 197.441 336.341C195.279 335.719 193.062 335.311 190.821 335.121V335.221ZM176.821 314.001C181.315 311.01 184.559 306.478 185.941 301.261C186.361 305.761 191.341 308.641 195.941 307.481C198.901 306.981 199.321 304.581 202.221 306.401C201.243 308.764 201.084 311.387 201.769 313.852C202.454 316.316 203.944 318.481 206.001 320.001C203.996 320.72 202.32 322.141 201.281 324.001C201.121 320.521 198.501 318.161 195.081 316.561C192.827 314.737 189.99 313.791 187.092 313.898C184.195 314.005 181.435 315.156 179.321 317.141C178.531 316.033 177.662 314.984 176.721 314.001H176.821ZM160.281 315.621C158.821 314.001 156.781 312.721 154.961 310.681C167.181 315.621 182.461 303.981 182.341 290.861C192.801 303.361 173.461 320.981 160.181 315.521L160.281 315.621ZM131.281 249.721C139.281 246.781 142.601 242.961 139.701 234.561C141.665 236.152 144.134 236.989 146.661 236.921C149.721 237.721 146.241 241.141 145.321 243.181C143.321 247.421 145.481 250.041 147.841 253.621C140.941 258.241 132.341 255.061 131.181 249.621L131.281 249.721ZM108.321 272.701C105.361 282.461 76.9811 277.101 81.0411 266.121C85.9811 274.121 104.181 275.341 109.041 269.061C108.961 269.821 108.641 271.261 108.321 272.701ZM140.141 276.141C141.481 286.901 127.701 294.721 118.141 290.501C118.141 289.481 116.141 289.101 115.581 287.661C125.581 292.741 141.081 280.201 137.061 270.881C138.001 272.121 138.901 274.421 140.141 276.141ZM119.841 311.281C113.841 315.281 93.4211 316.261 94.7611 308.221C96.8011 298.481 136.161 300.121 119.841 311.281ZM94.3211 313.281C96.1611 317.281 87.5211 316.501 85.1211 315.681C79.8211 313.541 80.6611 314.301 80.5011 308.561C78.8011 304.001 72.6811 304.981 76.0011 299.081C81.7411 293.621 92.0011 300.481 95.0211 305.621C93.2011 307.701 93.8411 310.421 94.3211 313.321V313.281ZM74.8211 314.181C68.0011 316.401 47.6611 311.021 52.0011 303.721C57.0411 295.481 93.6411 308.281 74.8211 314.221V314.181ZM50.6611 304.061C49.7611 306.581 50.1411 310.061 49.2811 312.901C42.8411 317.781 25.9211 320.901 24.3011 312.101C23.4011 302.821 53.2411 294.941 50.6611 304.101V304.061ZM47.3411 290.001C46.9211 287.161 48.3611 282.301 45.3411 279.881C46.4318 279.307 47.4693 278.638 48.4411 277.881C48.9211 285.001 52.8811 289.721 59.9011 289.881C59.7238 291.727 59.0007 293.479 57.8239 294.913C56.6472 296.347 55.07 297.398 53.2936 297.932C51.5172 298.466 49.6219 298.46 47.8494 297.912C46.0769 297.365 44.5075 296.303 43.3411 294.861C45.2011 293.821 47.3011 292.201 47.3411 290.001ZM34.0011 280.521C32.5543 279.641 31.1587 278.679 29.8211 277.641C38.2411 278.861 48.3011 274.041 51.5211 265.741C54.5211 266.021 56.1211 263.541 57.9411 267.241C54.1411 269.021 48.4611 271.901 48.3611 277.001C44.4611 279.521 38.5611 282.681 34.0011 280.521ZM38.6611 261.461C37.65 259.867 36.8753 258.136 36.3611 256.321C43.2211 263.981 61.5411 259.041 65.7611 252.321C69.3611 255.641 69.0411 254.841 66.3011 258.321C59.5611 266.001 45.1411 267.301 38.5611 261.461H38.6611ZM94.9811 244.001C91.2211 248.001 84.5811 249.881 78.9811 250.261C60.4411 251.121 59.8011 239.821 75.7611 235.101C82.5011 232.161 105.161 234.241 94.9811 244.001ZM65.2411 248.001C74.8811 254.701 93.5211 250.141 98.1811 240.881C104.621 257.761 64.0011 261.301 65.2411 248.001ZM119.241 227.741C115.641 224.961 122.241 223.741 123.841 221.741C126.041 226.561 132.421 227.741 137.341 226.941C136.84 228.289 136.84 229.772 137.341 231.121C132.321 227.281 125.461 227.501 119.301 227.701L119.241 227.741ZM108.621 223.401C107.998 222.643 107.279 221.971 106.481 221.401C121.441 224.781 121.641 214.921 126.481 216.901C125.74 218.496 124.69 219.93 123.393 221.118C122.096 222.307 120.577 223.228 118.923 223.829C117.269 224.429 115.513 224.697 113.755 224.616C111.998 224.536 110.273 224.109 108.681 223.361L108.621 223.401ZM95.1811 224.961C88.4811 224.581 82.7011 223.781 82.8011 215.641C85.9211 220.681 92.8011 220.841 98.2811 220.241C103.061 219.721 101.721 218.041 105.901 221.801C102.705 223.806 99.0146 224.887 95.2411 224.921L95.1811 224.961ZM101.441 199.081C110.341 207.081 118.441 197.361 121.761 202.241C116.561 207.501 101.181 209.001 101.501 199.041L101.441 199.081ZM106.001 206.541C109.871 207.292 113.869 207.051 117.621 205.841C114.841 210.181 119.281 214.421 123.301 216.081C113.841 226.581 93.2611 220.161 106.001 206.541ZM148.381 219.461C150.841 221.181 153.361 222.841 155.821 224.501C151.221 226.161 145.821 230.341 146.921 236.021C142.001 236.381 136.321 232.521 137.981 226.841C140.112 226.36 142.125 225.46 143.904 224.193C145.683 222.926 147.191 221.317 148.341 219.461H148.381ZM208.001 259.801C211.361 260.281 216.621 255.941 220.201 254.761C223.581 269.381 204.201 274.901 199.741 261.561C201.486 260.388 202.871 258.754 203.741 256.841C205.121 257.861 206.561 258.841 208.001 259.801ZM282.721 218.181C289.421 220.361 298.381 221.701 304.421 216.941C303.301 228.781 285.841 224.161 279.301 220.521C280.501 219.781 281.621 218.981 282.741 218.181H282.721ZM315.401 227.661C314.121 235.661 298.541 233.921 294.041 230.381C294.401 229.261 294.941 227.541 295.481 225.881C301.701 228.501 311.061 229.321 315.841 224.221C315.801 225.081 315.641 226.361 315.421 227.661H315.401ZM324.201 238.961C339.541 241.621 334.861 248.961 322.641 249.941C316.901 250.961 296.221 247.261 307.481 240.461C312.791 238.319 318.615 237.797 324.221 238.961H324.201ZM336.201 250.101C336.387 252.347 336.913 254.552 337.761 256.641C335.241 258.361 335.561 261.721 335.661 264.881C330.801 264.521 326.401 261.141 323.241 257.501C323.241 258.841 325.441 260.601 326.621 261.781C325.761 262.841 319.061 265.581 318.621 263.021C318.341 261.141 318.621 259.681 318.241 257.541C324.021 257.701 334.521 257.181 334.841 250.001C335.276 250.079 335.719 250.113 336.161 250.101H336.201ZM366.581 262.101C367.161 269.761 362.941 271.621 356.301 272.441C348.101 273.181 334.701 272.761 336.301 261.621C341.361 268.741 362.621 267.781 366.541 262.161L366.581 262.101ZM366.261 278.101C361.701 278.741 357.481 281.841 353.461 284.101C346.701 284.901 333.841 278.101 341.661 271.601C343.648 272.334 345.716 272.825 347.821 273.061C354.721 274.681 363.341 269.521 366.221 278.121L366.261 278.101ZM352.601 290.901C343.921 290.581 336.601 286.501 338.601 277.081C340.321 282.761 347.721 284.961 353.241 285.081C351.581 287.261 352.001 288.421 352.561 290.921L352.601 290.901ZM334.221 278.741C334.701 288.921 305.281 297.761 304.221 284.261C311.601 289.081 331.161 281.041 332.921 274.261C333.526 275.702 333.95 277.214 334.181 278.761L334.221 278.741ZM317.341 303.121C316.921 303.821 317.881 306.221 316.921 306.821C315.741 306.961 314.546 306.733 313.5 306.167C312.454 305.601 311.609 304.726 311.081 303.661C313.431 302.538 315.41 300.766 316.786 298.555C318.161 296.343 318.874 293.785 318.841 291.181C320.546 290.77 322.229 290.269 323.881 289.681C320.162 293.246 317.83 298.016 317.301 303.141L317.341 303.121ZM310.481 303.121C303.681 305.861 298.641 303.441 294.101 297.981C295.645 299.346 297.504 300.304 299.512 300.769C301.519 301.234 303.611 301.19 305.597 300.642C307.584 300.093 309.402 299.058 310.887 297.629C312.372 296.201 313.476 294.424 314.101 292.461C314.421 291.061 316.721 291.921 318.101 291.341C318.103 293.838 317.381 296.282 316.021 298.377C314.661 300.471 312.723 302.126 310.441 303.141L310.481 303.121ZM264.621 305.841C258.141 312.001 250.421 312.021 242.921 307.841C250.801 309.561 258.921 303.601 263.341 297.181C265.341 292.581 265.921 295.181 270.141 295.401C269.43 299.384 267.485 303.043 264.581 305.861L264.621 305.841ZM233.121 325.681C233.121 325.681 233.021 325.681 233.121 326.001C230.921 324.121 230.541 320.961 230.541 317.681C234.099 318.956 237.942 319.22 241.641 318.441C238.381 319.541 233.521 321.361 233.081 325.701L233.121 325.681ZM226.421 323.101C228.281 328.981 231.921 327.261 223.221 326.261C223.641 324.261 222.741 318.021 219.681 317.521C226.301 311.401 220.881 312.201 226.921 315.981C225.893 318.219 225.701 320.753 226.381 323.121L226.421 323.101ZM203.501 316.621C202.579 315.108 202.009 313.409 201.833 311.647C201.656 309.885 201.878 308.105 202.481 306.441C210.241 308.681 219.581 307.721 226.101 302.441C226.661 313.101 211.581 328.521 203.461 316.641L203.501 316.621ZM186.301 299.101C186.141 293.641 184.301 291.861 187.541 286.781C190.276 286.89 193.004 286.437 195.556 285.45C198.109 284.463 200.432 282.962 202.381 281.041C209.081 292.881 192.381 284.801 196.801 299.641C197.401 301.461 196.901 303.821 199.161 304.941C193.821 309.141 185.461 306.001 186.261 299.121L186.301 299.101ZM184.901 285.281C183.21 284.341 181.732 283.06 180.561 281.521C189.141 286.301 203.561 276.821 202.161 267.861C211.381 277.861 194.441 288.921 184.801 285.661C184.921 285.561 184.981 285.401 184.861 285.301L184.901 285.281ZM154.341 278.001C153.784 276.51 153.317 274.987 152.941 273.441C158.941 279.601 180.001 276.341 182.141 270.061C186.261 283.001 158.461 284.541 154.341 278.001ZM160.341 264.281C166.921 261.121 189.741 262.621 179.141 272.481C158.681 281.661 142.441 270.001 160.341 264.301V264.281ZM169.501 255.661C171.497 256.484 173.644 256.876 175.802 256.81C177.96 256.745 180.079 256.224 182.021 255.281C182.203 256.552 182.689 257.762 183.438 258.806C184.186 259.851 185.175 260.699 186.321 261.281C185.229 261.436 184.187 261.839 183.275 262.46C182.364 263.08 181.606 263.902 181.061 264.861C177.061 261.701 170.881 261.601 165.801 262.181C166.888 261.467 167.79 260.506 168.433 259.376C169.076 258.246 169.442 256.979 169.501 255.681V255.661ZM199.381 261.821C199.781 263.35 200.513 264.773 201.523 265.99C202.534 267.206 203.799 268.185 205.23 268.858C206.661 269.532 208.222 269.883 209.803 269.887C211.384 269.89 212.947 269.547 214.381 268.881C218.521 266.201 217.821 266.421 221.081 269.201C231.541 280.621 214.601 285.201 206.841 279.061C203.081 277.621 206.201 275.421 205.761 272.481C203.561 269.001 201.001 263.261 195.541 263.321C196.895 263.046 198.193 262.546 199.381 261.841V261.821ZM220.541 262.401C225.041 267.761 227.081 261.921 229.601 270.221C230.497 272.29 232.013 274.03 233.941 275.201C236.781 283.201 222.861 283.401 223.221 279.821C227.521 275.161 222.701 268.881 218.141 266.261C219.183 265.148 219.998 263.844 220.541 262.421V262.401ZM234.701 256.401C237.221 258.661 242.041 257.421 243.961 258.761C248.521 266.641 264.161 265.621 269.961 263.481C269.881 264.327 270.065 265.177 270.488 265.915C270.91 266.652 271.551 267.241 272.321 267.601C271.448 267.955 270.702 268.564 270.181 269.349C269.66 270.134 269.388 271.058 269.401 272.001C268.821 271.721 268.121 272.521 268.061 270.921C263.681 262.821 242.461 263.681 238.061 268.921C237.361 270.161 236.981 270.261 235.381 270.001C221.461 268.741 232.341 253.681 234.701 256.361V256.401ZM251.201 246.721C255.201 244.461 280.501 246.441 272.721 254.421C261.261 262.261 231.221 253.101 251.201 246.681V246.721ZM264.641 233.861C260.641 235.681 259.661 240.881 260.641 245.061C258.792 244.894 256.931 244.894 255.081 245.061C254.721 238.001 258.981 234.261 264.641 233.821V233.861ZM274.001 236.601C274.001 235.841 274.001 233.701 276.201 234.941C279.479 236.019 282.947 236.4 286.381 236.061C284.621 239.061 287.561 242.981 289.801 245.181C276.001 249.561 278.901 241.321 274.001 236.601ZM334.221 246.341C334.861 253.801 330.621 255.941 323.941 256.681C315.581 257.501 302.341 256.801 303.941 245.861C309.061 252.881 330.321 252.001 334.181 246.341H334.221ZM327.041 262.161C328.325 263.17 329.755 263.979 331.281 264.561C329.442 266.196 327.262 267.403 324.9 268.095C322.538 268.786 320.052 268.946 317.621 268.561C318.435 267.225 318.773 265.653 318.581 264.101C320.034 264.519 321.569 264.56 323.042 264.221C324.516 263.881 325.878 263.172 327.001 262.161H327.041ZM328.121 270.361C344.121 275.441 309.261 289.701 304.641 283.421C300.421 275.061 323.741 269.221 328.001 270.361H328.121ZM304.281 285.881C305.181 290.061 308.981 292.261 313.481 291.881C312.896 293.938 311.764 295.797 310.205 297.262C308.647 298.726 306.72 299.74 304.63 300.196C302.541 300.652 300.367 300.532 298.34 299.849C296.313 299.167 294.509 297.947 293.121 296.321C297.421 294.661 297.121 289.101 297.781 284.961C299.765 285.938 302.049 286.117 304.161 285.461C304.175 285.603 304.202 285.743 304.241 285.881H304.281ZM294.281 287.981C292.515 289.423 290.433 290.427 288.205 290.91C285.977 291.394 283.666 291.342 281.461 290.761C288.161 278.181 278.141 275.021 270.161 271.361C270.185 270.818 270.33 270.288 270.586 269.808C270.841 269.329 271.201 268.913 271.638 268.591C272.076 268.269 272.579 268.049 273.113 267.946C273.646 267.844 274.196 267.863 274.721 268.001C274.561 276.941 290.421 277.321 295.941 276.561C297.033 278.369 297.459 280.502 297.145 282.591C296.831 284.68 295.797 286.593 294.221 288.001L294.281 287.981ZM244.001 308.921C249.401 316.921 228.001 313.541 225.781 308.501C226.497 306.473 226.823 304.329 226.741 302.181C233.201 302.121 238.661 305.021 244.001 308.921ZM228.141 298.921C224.141 290.781 238.421 279.701 243.881 286.341C239.761 291.001 235.481 298.341 238.581 304.501C226.821 299.121 225.701 304.701 228.161 298.901L228.141 298.921ZM222.141 296.921C215.441 300.921 199.221 301.381 197.121 295.701C194.781 283.741 239.141 284.921 222.101 296.861L222.141 296.921ZM226.581 291.681C224.741 284.161 208.581 286.921 204.361 287.821C204.665 286.269 204.568 284.665 204.081 283.161C208.261 286.481 215.401 288.081 220.081 284.661C222.721 286.661 228.281 287.761 230.701 284.241C231.001 284.704 231.413 285.085 231.899 285.347C232.385 285.609 232.929 285.745 233.481 285.741C230.565 287.518 228.295 290.181 227.001 293.341C226.821 292.861 226.781 292.521 226.541 291.621L226.581 291.681ZM204.001 278.861C204.161 278.601 204.321 278.281 204.481 277.961C208.921 282.141 216.861 284.381 222.481 280.521C218.681 290.341 198.961 284.001 204.001 278.861ZM236.841 276.721C236.841 281.181 242.201 283.321 246.221 284.121C245.41 284.791 244.635 285.506 243.901 286.261C243.161 281.921 236.841 283.521 233.901 285.361C226.941 284.221 236.941 279.881 234.701 275.361C235.341 276.001 237.101 275.121 236.841 276.721ZM231.001 283.001C228.741 286.321 224.041 286.641 220.381 284.281C221.253 283.223 222.01 282.077 222.641 280.861C223.981 281.834 225.554 282.436 227.202 282.605C228.849 282.773 230.512 282.503 232.021 281.821C231.709 282.237 231.368 282.631 231.001 283.001ZM241.001 306.041C234.201 299.761 241.421 289.201 246.721 284.341C248.381 284.501 250.961 284.921 253.161 284.921C254.501 289.641 259.701 292.261 264.141 293.981C260.521 302.001 248.561 310.581 241.021 306.001L241.001 306.041ZM242.661 282.401C237.461 279.941 237.361 279.021 237.301 273.081C242.501 280.161 263.761 279.241 267.681 273.561C269.681 286.481 250.001 285.141 242.681 282.401H242.661ZM264.401 268.101C277.701 278.381 240.081 279.841 237.881 272.381C236.841 263.121 260.781 265.581 264.421 268.101H264.401ZM268.401 272.601C274.881 272.501 284.741 278.601 282.701 285.081C278.581 291.081 265.121 288.361 261.221 284.021C268.001 282.141 268.601 279.461 268.341 272.601H268.401ZM296.001 275.761C288.001 276.641 273.601 276.461 275.221 265.041C280.421 272.121 301.681 271.201 305.601 265.521C306.261 272.441 302.141 275.081 296.001 275.761ZM295.581 258.181C310.901 260.941 306.241 268.181 294.021 269.181C288.281 270.241 267.601 266.501 278.861 259.681C284.154 257.527 289.969 257.005 295.561 258.181H295.581ZM305.961 270.181C306.168 269.1 306.262 268.001 306.241 266.901C310.581 267.981 316.101 266.381 317.861 261.761C319.621 269.761 311.961 272.641 305.601 271.761C305.86 271.26 305.997 270.705 306.001 270.141L305.961 270.181ZM317.641 259.301C318.181 264.281 309.281 268.781 306.241 265.621C306.921 259.301 299.161 258.061 294.241 257.161C294.881 255.561 293.541 253.781 293.641 252.061C295.101 247.721 300.021 251.101 303.501 250.781C303.945 251.909 304.632 252.926 305.514 253.759C306.395 254.592 307.449 255.221 308.601 255.601C312.641 258.001 317.781 256.001 317.621 259.261L317.641 259.301ZM278.321 245.301C282.021 248.301 287.061 246.261 290.861 246.101C292.415 247.394 294.146 248.458 296.001 249.261C295.304 249.397 294.659 249.726 294.139 250.21C293.62 250.694 293.246 251.315 293.061 252.001C290.001 247.701 283.781 247.501 278.861 249.481C278.804 248.066 278.616 246.66 278.301 245.281L278.321 245.301ZM303.381 250.001C292.501 250.541 279.641 236.001 290.521 235.161C291.861 240.521 297.741 244.101 303.261 245.401C303.196 246.935 303.236 248.472 303.381 250.001ZM278.001 249.021C279.461 256.421 272.161 261.781 276.181 259.021C277.223 257.743 277.995 256.267 278.448 254.682C278.902 253.097 279.029 251.436 278.821 249.801C284.601 247.601 294.341 249.001 293.441 256.981C286.261 256.341 272.761 256.721 274.521 267.281C273.981 267.305 273.441 267.219 272.935 267.029C272.429 266.839 271.966 266.548 271.576 266.175C271.185 265.801 270.874 265.351 270.662 264.854C270.45 264.357 270.341 263.821 270.341 263.281C271.621 262.768 272.775 261.983 273.721 260.981C275.721 257.981 275.121 254.761 274.841 250.981C273.241 247.281 268.161 246.321 264.181 245.461C258.021 246.041 261.021 236.841 264.181 234.741C272.401 230.821 278.001 242.661 278.001 249.021ZM245.761 255.021C253.901 259.421 269.161 259.581 274.481 253.681C277.901 269.121 239.701 267.021 244.361 253.681C244.799 254.185 245.296 254.635 245.841 255.021H245.761ZM236.921 270.781C236.745 272.06 236.652 273.349 236.641 274.641C236.641 275.021 236.861 275.181 235.901 275.061C232.141 274.741 230.801 271.581 229.201 268.321C231.412 270.069 234.188 270.944 237.001 270.781H236.921ZM182.701 269.061C183.121 267.841 181.101 265.901 181.621 264.681C182.264 263.83 183.091 263.137 184.04 262.652C184.989 262.167 186.036 261.903 187.101 261.881C188.961 261.881 191.101 263.701 193.301 263.441C189.19 264.245 185.482 266.442 182.801 269.661C182.742 269.466 182.735 269.259 182.781 269.061H182.701ZM182.701 276.301C182.968 274.309 182.968 272.292 182.701 270.301C186.241 266.721 191.441 263.121 197.061 264.301C206.761 267.141 198.141 278.501 192.301 280.701C189.521 282.701 178.301 283.221 179.861 279.201C181.102 278.512 182.143 277.513 182.881 276.301H182.701ZM198.001 303.081C197.762 301.11 197.388 299.159 196.881 297.241C203.421 303.681 223.181 301.001 226.301 293.061C232.661 307.161 203.841 310.001 198.001 303.081ZM223.781 312.621C224.496 311.464 225.105 310.246 225.601 308.981C228.02 311.609 231.198 313.419 234.693 314.157C238.188 314.896 241.826 314.526 245.101 313.101C245.081 321.881 226.821 317.501 223.821 312.621H223.781ZM244.361 317.061C246.361 315.361 246.021 312.401 245.161 309.521C246.634 310.384 248.28 310.91 249.981 311.061C250.125 312.188 250.504 313.272 251.093 314.243C251.682 315.215 252.468 316.052 253.401 316.701C249.762 316.553 246.125 317.02 242.641 318.081C243.266 317.811 243.857 317.469 244.401 317.061H244.361ZM268.361 294.361C262.841 293.181 256.361 290.361 253.581 284.861C255.721 285.301 258.721 283.701 260.981 284.541C265.621 289.921 277.501 290.941 282.501 286.361C280.001 295.161 276.581 295.421 268.441 294.361H268.361ZM281.121 291.241C286.681 292.961 293.981 291.241 296.921 285.561C297.181 297.781 286.261 299.981 277.841 294.841C278.621 294.507 279.322 294.015 279.901 293.395C280.479 292.775 280.922 292.041 281.201 291.241H281.121ZM334.421 276.841C332.701 263.601 311.861 271.421 306.141 276.621C299.601 281.701 306.141 284.621 302.441 285.241C294.301 286.101 300.021 280.581 296.701 276.401C304.321 275.601 303.621 271.801 306.701 272.401C314.901 273.201 314.841 268.401 319.601 269.401C321.859 269.558 324.125 269.235 326.248 268.452C328.372 267.67 330.306 266.446 331.921 264.861C332.781 265.661 335.921 264.641 335.781 266.721C336.228 267.836 336.917 268.839 337.799 269.655C338.681 270.472 339.734 271.081 340.881 271.441C338.881 271.881 339.161 275.081 337.881 275.681C336.657 275.683 335.469 276.091 334.501 276.841H334.421ZM303.241 244.681C300.341 244.681 288.621 237.401 291.621 234.681C293.501 234.101 292.961 232.861 293.821 230.681C297.821 234.361 304.101 233.621 308.821 234.261C310.116 236.026 312.018 237.252 314.161 237.701C309.861 238.401 303.241 240.241 303.321 244.681H303.241ZM278.821 220.841C283.321 224.121 289.161 224.841 294.621 225.461C290.621 232.641 276.781 228.881 271.641 225.461L278.821 220.841ZM271.141 225.881C276.661 230.281 289.141 232.261 294.081 227.881C293.161 240.101 271.841 235.321 267.621 228.101C268.821 227.381 270.001 226.641 271.221 225.881H271.141ZM267.141 228.401C268.754 231.071 271.23 233.111 274.161 234.181C273.916 234.449 273.727 234.765 273.607 235.109C273.486 235.453 273.437 235.817 273.461 236.181C268.801 231.461 259.101 231.961 255.581 238.381C253.261 241.541 256.381 245.621 251.581 245.621C251.586 244.429 251.314 243.252 250.786 242.183C250.259 241.114 249.49 240.182 248.541 239.461C254.941 236.001 261.161 232.261 267.261 228.401H267.141ZM248.181 239.761C256.801 249.561 242.561 244.001 243.461 253.201C241.575 253.051 239.753 252.448 238.151 251.441C236.549 250.434 235.214 249.055 234.261 247.421C238.881 245.061 243.641 242.441 248.301 239.761H248.181ZM243.581 257.381C240.739 257.765 237.846 257.268 235.296 255.955C232.745 254.642 230.66 252.578 229.321 250.041C230.821 249.301 232.321 248.501 233.821 247.681C234.754 249.467 236.131 250.982 237.819 252.082C239.507 253.182 241.45 253.829 243.461 253.961C243.461 253.961 243.241 257.141 243.701 257.381H243.581ZM228.941 250.261C229.912 252.346 231.391 254.154 233.241 255.521C231.603 256.485 230.23 257.842 229.245 259.469C228.261 261.096 227.696 262.941 227.601 264.841C226.321 265.001 220.101 263.701 220.801 261.181C222.201 258.681 219.841 255.521 221.441 254.061C224.001 252.881 226.441 251.661 229.061 250.261H228.941ZM196.701 262.261C194.464 263.06 192.018 263.06 189.781 262.261C192.114 262.273 194.398 261.586 196.337 260.288C198.276 258.99 199.782 257.142 200.661 254.981C205.761 256.801 199.621 261.281 196.821 262.321L196.701 262.261ZM190.861 261.461C188.897 261.592 186.95 261.015 185.376 259.833C183.801 258.651 182.703 256.944 182.281 255.021C183.85 254.154 185.213 252.958 186.277 251.515C187.34 250.072 188.078 248.416 188.441 246.661C191.501 249.461 198.141 251.861 199.741 255.021C198.977 256.776 197.766 258.3 196.229 259.44C194.692 260.581 192.882 261.298 190.981 261.521L190.861 261.461ZM182.021 254.321C179.556 255.79 176.678 256.414 173.825 256.096C170.973 255.778 168.302 254.537 166.221 252.561C172.741 256.101 184.641 251.161 185.021 244.361C190.821 246.401 185.401 252.401 182.141 254.381L182.021 254.321ZM149.341 254.601C148.685 253.561 147.97 252.559 147.201 251.601C151.801 254.001 159.401 254.381 163.321 250.041C164.121 251.001 164.761 251.801 166.161 253.261C163.893 255.25 161.048 256.459 158.042 256.711C155.036 256.963 152.028 256.244 149.461 254.661L149.341 254.601ZM148.101 240.121C150.741 251.601 162.101 245.381 162.941 249.401C154.941 256.521 138.401 250.781 148.001 239.801C148.04 239.944 148.116 240.075 148.221 240.181L148.101 240.121ZM184.541 244.001C183.101 252.641 166.541 256.641 163.181 248.001C166.061 247.748 168.833 246.782 171.245 245.19C173.658 243.597 175.636 241.429 177.001 238.881C185.721 244.781 184.541 243.841 184.541 244.001ZM175.181 240.461C169.181 248.821 150.321 251.341 148.381 238.601C155.081 244.221 165.961 240.601 172.181 235.541C173.681 236.981 177.861 237.841 175.181 240.501V240.461ZM155.561 240.461C141.721 239.581 148.181 226.741 156.681 225.021C161.681 228.401 166.381 231.621 171.421 235.021C166.984 238.724 161.337 240.661 155.561 240.461ZM139.701 241.801C134.881 252.841 109.701 252.621 108.961 240.461C115.861 248.061 137.561 245.921 139.501 236.341C139.799 238.145 139.866 239.979 139.701 241.801ZM108.641 255.801C104.641 255.681 92.3411 251.241 99.8011 248.181C101.713 249.028 103.814 249.356 105.893 249.131C107.972 248.907 109.955 248.137 111.641 246.901C113.797 248.542 116.313 249.646 118.981 250.121C118.001 254.541 112.921 256.481 108.641 255.841V255.801ZM121.541 228.521C142.341 226.521 144.961 241.541 125.081 244.221C105.741 245.861 102.161 230.461 121.541 228.561V228.521ZM108.201 240.901C108.539 243.076 109.595 245.075 111.201 246.581C109.433 247.637 107.446 248.273 105.393 248.44C103.34 248.606 101.276 248.298 99.3611 247.541C100.161 245.981 99.3611 243.841 99.0011 241.541C100.498 242.052 102.082 242.262 103.661 242.159C105.24 242.056 106.783 241.642 108.201 240.941V240.901ZM101.721 272.141C95.0211 272.621 76.2211 269.561 82.8211 260.341C92.0011 252.841 123.161 266.121 101.721 272.181V272.141ZM96.0011 257.761C84.2011 256.901 80.1411 257.021 80.1411 269.281C79.1492 268.037 77.8033 267.123 76.2811 266.661C72.2811 262.041 73.9811 258.361 79.4411 256.841C82.9811 257.381 87.0411 255.881 90.6811 255.341C94.0952 255.859 97.3839 257.005 100.381 258.721C98.9436 258.305 97.4805 257.985 96.0011 257.761ZM115.501 288.621C115.861 289.161 117.161 289.741 117.801 290.921C111.641 297.141 92.0211 298.421 92.6611 286.741C100.701 292.961 108.641 290.181 115.501 288.621ZM111.801 300.941C106.541 301.261 100.161 301.481 95.6611 305.061C95.1811 303.721 92.7811 302.341 92.4011 300.721C92.6735 299.506 93.2963 298.398 94.1921 297.535C95.088 296.671 96.2177 296.089 97.4411 295.861C101.441 295.641 105.681 297.201 109.921 295.861C109.96 297.717 110.623 299.506 111.801 300.941ZM81.5811 296.441C77.5811 295.801 73.2211 299.281 74.8211 303.721C70.5852 301.846 66.06 300.71 61.4411 300.361C62.0796 298.363 63.2435 296.573 64.8109 295.179C66.3783 293.785 68.2916 292.838 70.3505 292.438C72.4094 292.037 74.5381 292.197 76.5139 292.901C78.4897 293.605 80.2398 294.828 81.5811 296.441ZM82.7611 296.541C78.7611 293.341 79.6611 290.441 85.0011 288.781C87.0011 290.661 91.3811 289.201 92.6611 290.781C93.0411 293.041 95.4011 294.261 97.6611 295.121C96.2288 295.335 94.8995 295.992 93.8594 297C92.8193 298.008 92.1206 299.316 91.8611 300.741C89.2386 298.583 86.1047 297.136 82.7611 296.541ZM92.0011 283.861C91.8223 285.688 91.9439 287.532 92.3611 289.321C89.9728 289.586 87.5584 289.162 85.4035 288.099C83.2486 287.036 81.4432 285.378 80.2011 283.321C83.1611 280.121 82.6211 276.681 81.4411 272.341C83.683 274.498 86.3527 276.161 89.2776 277.222C92.2024 278.283 95.3174 278.719 98.4211 278.501C96.9944 278.801 95.6632 279.447 94.544 280.381C93.4248 281.316 92.5517 282.51 92.0011 283.861ZM57.5411 288.841C55.3407 288.48 53.329 287.38 51.8381 285.722C50.3473 284.064 49.4665 281.947 49.3411 279.721C56.0411 288.141 78.7011 283.721 81.3411 274.961C84.0011 287.021 66.1611 290.461 57.5211 288.841H57.5411ZM58.4011 267.021C58.0811 266.601 57.6611 266.021 56.8011 265.021C61.7811 263.621 67.3011 260.521 69.3411 255.261C71.9369 256.094 74.6223 256.618 77.3411 256.821C76.3755 257.128 75.5119 257.693 74.8429 258.454C74.1739 259.215 73.7249 260.144 73.544 261.141C73.363 262.138 73.4571 263.166 73.816 264.114C74.1749 265.061 74.7851 265.893 75.5811 266.521C69.9449 264.82 63.909 264.996 58.3811 267.021H58.4011ZM61.1411 267.021C66.9611 265.721 75.5011 264.661 79.4611 270.181C85.0211 280.741 64.5011 284.061 58.5011 283.101C41.3411 280.581 51.1811 269.121 61.1211 266.921L61.1411 267.021ZM42.9211 295.021C43.9185 296.361 45.2403 297.426 46.7623 298.116C48.2843 298.805 49.9565 299.097 51.6221 298.963C53.2876 298.829 54.8918 298.274 56.284 297.35C57.6762 296.426 58.8107 295.163 59.5811 293.681C60.9211 292.221 59.5811 289.501 62.0411 289.921C68.5811 289.661 75.3811 288.741 79.8811 283.661C80.8465 285.553 82.3132 287.144 84.1211 288.261C82.9444 288.613 81.8847 289.276 81.0539 290.181C80.2231 291.086 79.6521 292.198 79.4011 293.401C69.5411 287.881 64.4611 294.001 60.1211 300.261C58.6809 300.001 57.2024 300.045 55.7801 300.389C54.3579 300.734 53.0231 301.371 51.8611 302.261C47.5811 297.001 42.7011 301.621 42.0611 297.321C42.0011 296.601 40.8611 295.481 42.9011 295.001L42.9211 295.021ZM41.4211 297.221C41.6372 298.012 41.9251 298.782 42.2811 299.521C41.4008 299.613 40.5262 299.753 39.6611 299.941C40.4621 299.188 41.0606 298.246 41.4011 297.201L41.4211 297.221ZM124.241 305.781C122.961 301.221 116.581 301.221 112.461 300.961C107.001 293.361 115.621 295.921 118.461 291.261C120.685 292.155 123.081 292.539 125.474 292.383C127.866 292.228 130.192 291.536 132.281 290.361C132.281 291.381 134.901 294.001 133.301 295.021C131.064 295.993 129.082 297.468 127.507 299.331C125.933 301.193 124.808 303.393 124.221 305.761L124.241 305.781ZM136.921 272.001C138.681 285.341 114.201 295.141 112.121 281.121C111.641 270.181 134.141 261.241 136.921 272.001ZM114.421 287.541C111.599 288.96 108.497 289.734 105.338 289.807C102.18 289.88 99.0454 289.249 96.1611 287.961C83.7811 281.701 106.821 276.301 111.681 278.121C110.241 282.581 112.241 284.701 114.421 287.441V287.541ZM110.001 266.441C108.441 260.121 94.9411 255.241 90.8611 254.861C93.0779 253.885 95.1082 252.532 96.8611 250.861C99.6411 255.961 109.281 257.181 113.521 256.281C114.349 258.63 115.86 260.678 117.861 262.161C116.881 265.161 113.181 267.881 110.001 266.441ZM113.861 256.261C115.279 255.907 116.572 255.172 117.602 254.136C118.631 253.099 119.357 251.8 119.701 250.381C123.391 251.044 127.185 250.839 130.781 249.781C130.941 252.581 133.581 254.761 136.301 255.781C137.961 256.321 136.301 259.321 135.601 260.661C129.801 268.001 117.261 264.181 113.841 256.261H113.861ZM148.241 254.261C151.561 258.261 158.701 258.481 163.301 256.401C166.141 255.421 166.241 252.861 168.881 255.321C168.721 260.901 164.741 262.721 159.341 263.741C156.181 264.801 154.081 266.581 150.341 266.141C143.401 265.481 141.641 256.521 148.221 254.181L148.241 254.261ZM147.261 266.001C149.265 266.94 151.525 267.179 153.681 266.681C150.481 269.801 152.181 275.001 154.181 278.681C144.181 280.821 141.101 273.001 146.181 265.241C146.521 265.521 146.881 265.801 147.261 266.001ZM151.501 279.821C152.821 280.141 154.341 278.521 155.501 280.081C162.721 284.261 172.041 282.921 179.121 279.541C179.493 280.862 180.151 282.085 181.05 283.122C181.949 284.159 183.066 284.985 184.321 285.541C184.521 286.301 186.081 286.501 187.261 286.721C185.584 288.502 184.678 290.874 184.741 293.321C178.421 279.761 164.861 282.441 156.341 290.361C155.541 291.121 155.661 291.661 154.341 291.021C148.921 290.001 145.581 278.381 151.501 279.841V279.821ZM163.121 286.681C186.961 277.681 185.941 301.081 169.381 308.681C146.001 318.001 146.521 294.561 163.121 286.701V286.681ZM204.001 333.241C205.361 324.221 236.521 325.421 235.681 334.041C233.561 342.781 202.721 342.001 204.001 333.241ZM230.801 327.941C227.081 326.581 225.541 319.941 227.201 316.201C232.341 317.661 227.841 323.601 233.041 326.821C233.041 327.301 233.201 328.041 233.361 329.061C232.543 328.658 231.701 328.304 230.841 328.001L230.801 327.941ZM255.121 316.861C253.911 316.448 252.844 315.697 252.047 314.698C251.25 313.699 250.755 312.492 250.621 311.221C252.392 311.623 254.237 311.568 255.981 311.061C255.481 314.341 262.221 318.141 255.161 316.861H255.121ZM258.921 315.521C258.229 314.984 257.653 314.312 257.23 313.545C256.807 312.778 256.545 311.932 256.461 311.061C260.973 309.902 264.91 307.144 267.541 303.301C267.829 305.186 268.712 306.931 270.061 308.281C267.795 308.605 265.627 309.421 263.71 310.672C261.792 311.923 260.172 313.577 258.961 315.521H258.921ZM267.981 302.661C269.419 300.46 270.348 297.966 270.701 295.361C272.581 296.021 275.741 294.401 277.841 295.361C279.918 296.87 282.366 297.787 284.924 298.012C287.481 298.238 290.052 297.764 292.361 296.641C292.981 309.041 270.861 317.121 268.001 302.661H267.981ZM293.201 297.841C294.269 299.318 295.511 300.661 296.901 301.841C288.901 308.441 298.781 307.581 284.641 313.581C281.48 313.102 278.386 312.256 275.421 311.061C282.761 312.421 292.361 306.181 293.241 297.841H293.201ZM293.201 308.881C293.26 309.331 293.367 309.773 293.521 310.201C290.301 310.721 291.681 311.221 293.301 308.881H293.201ZM310.821 314.441C303.481 304.041 290.461 315.721 294.321 305.061C294.921 304.261 296.581 301.061 297.981 302.601C299.802 303.81 301.889 304.558 304.063 304.781C306.237 305.004 308.433 304.695 310.461 303.881C311.028 305.152 312.008 306.194 313.243 306.837C314.478 307.48 315.894 307.686 317.261 307.421C317.521 309.145 318.262 310.76 319.401 312.081C316.415 312.102 313.489 312.917 310.921 314.441H310.821ZM383.001 285.461C386.001 296.821 352.881 304.541 353.001 290.501C359.901 295.861 380.101 289.161 382.361 282.621C382.561 283.261 382.821 284.181 383.101 285.461H383.001ZM381.221 282.941C376.621 291.361 347.581 295.701 353.641 285.781C358.001 278.601 384.281 274.001 381.321 282.941H381.221ZM380.581 270.621C380.421 278.221 372.861 277.701 366.581 277.161C366.045 275.936 365.218 274.861 364.173 274.028C363.127 273.195 361.894 272.629 360.581 272.381C361.641 272.381 363.041 270.681 364.481 271.361C369.941 272.981 376.481 272.981 380.921 268.861C380.901 269.441 380.781 270.001 380.681 270.621H380.581ZM378.921 262.901C385.941 271.321 369.701 272.181 364.461 270.561C367.841 268.001 367.841 262.201 366.161 258.181C370.821 258.561 375.701 259.481 379.021 262.901H378.921ZM365.681 258.901C368.421 268.321 340.021 266.621 337.181 261.841C332.301 251.701 363.641 253.041 365.781 258.941L365.681 258.901ZM363.861 247.701C365.741 252.301 361.021 255.961 356.101 253.861C350.008 252.566 343.655 253.399 338.101 256.221C337.465 254.524 336.996 252.769 336.701 250.981C344.361 255.581 360.381 253.161 363.061 244.281C363.381 245.181 363.641 246.301 364.001 247.741L363.861 247.701ZM360.001 239.181C370.701 249.781 342.421 256.201 336.641 250.041C342.741 249.721 352.641 244.161 351.421 237.401C354.393 237.157 357.371 237.775 360.001 239.181ZM350.521 236.981C353.401 243.761 340.021 250.201 334.761 249.301C334.957 247.296 334.849 245.273 334.441 243.301C340.121 243.301 347.461 240.081 349.381 234.241C349.661 234.881 350.001 235.781 350.581 236.981H350.521ZM339.801 228.401C357.701 229.841 343.801 242.601 333.961 242.541C332.461 240.541 329.361 239.541 326.721 238.741C342.641 235.481 332.521 227.821 339.861 228.401H339.801ZM336.001 227.121C339.161 242.221 312.001 239.121 308.941 233.821C310.941 233.821 312.481 231.561 314.781 232.581C322.561 234.141 333.001 233.861 336.001 227.121ZM318.641 218.701C346.641 217.961 335.561 237.181 314.361 231.461C316.661 229.841 317.141 222.021 316.661 218.861C317.345 218.937 318.037 218.882 318.701 218.701H318.641ZM308.201 214.001C313.721 214.801 319.561 220.601 313.881 224.941C308.521 228.041 301.661 227.341 295.761 225.201C304.441 224.981 304.081 220.641 305.761 213.681C306.641 213.881 307.401 213.881 308.201 214.001ZM301.761 208.321C313.761 219.681 290.241 220.701 283.501 217.701C287.681 214.221 294.541 212.461 294.061 206.021C296.776 206.185 299.414 206.987 301.761 208.361V208.321ZM292.821 209.821C262.181 232.861 210.821 258.261 208.701 259.221C208.701 260.501 207.041 172.801 206.941 172.921C206.841 173.041 296.001 136.741 302.841 134.001C301.561 143.701 292.821 208.581 292.821 209.861V209.821ZM272.361 85.3005C275.141 87.8009 277.492 90.7398 279.321 94.0005C288.161 110.001 292.601 108.001 299.321 115.261C301.275 117.694 302.62 120.558 303.246 123.615C303.872 126.673 303.761 129.835 302.921 132.841C302.701 132.841 214.781 168.581 207.121 172.381C201.121 150.781 216.301 146.501 220.041 133.421C223.361 124.161 224.321 114.621 228.561 105.421C238.001 86.0005 252.641 75.5605 272.361 85.3005ZM262.121 80.5405C245.881 78.2405 235.281 90.7805 228.861 103.041C223.661 112.901 222.861 123.501 219.101 133.681C217.221 139.801 212.781 144.241 209.101 149.481C207.12 152.781 205.849 156.458 205.371 160.277C204.892 164.096 205.216 167.974 206.321 171.661C200.161 167.541 192.501 164.061 186.121 160.361C182.381 139.361 198.501 134.361 204.121 120.081C212.601 100.201 214.621 71.2805 242.641 72.5605C246.961 73.8405 262.281 80.7005 262.121 80.5405ZM240.001 71.4405C214.001 70.9405 210.741 101.801 202.821 120.181C194.461 136.961 181.501 141.081 185.401 160.181C181.701 158.301 166.601 150.181 166.021 149.961C169.661 147.601 171.901 136.881 161.401 133.621C165.041 123.801 176.021 117.861 180.001 107.621C188.841 84.9005 196.441 64.3405 218.001 63.5205C220.341 64.2605 234.001 69.1205 240.001 71.4405ZM194.781 229.001C194.781 229.001 182.361 220.841 180.581 219.721C180.581 207.021 180.481 174.081 180.321 170.321C182.941 171.721 192.801 176.761 195.101 177.821C195.001 178.641 194.781 228.241 194.781 229.001ZM179.721 219.181C176.201 216.661 166.321 211.761 166.221 210.561C165.641 197.441 165.041 169.421 164.881 161.121C168.521 163.641 178.661 169.421 179.881 170.121C179.561 176.981 179.721 216.661 179.721 219.181ZM160.601 150.001C155.241 145.881 158.781 134.001 165.581 137.081C171.201 140.601 167.301 153.241 160.601 150.001ZM132.841 165.801C130.981 167.297 129.547 169.256 128.681 171.481C127.786 173.42 127.257 175.509 127.121 177.641C126.363 178.234 125.575 178.788 124.761 179.301C124.281 173.721 120.901 137.881 120.761 136.381C121.741 136.981 127.901 140.721 130.041 141.961C130.301 145.961 131.581 165.381 132.041 166.181C133.481 165.741 130.641 146.181 130.601 142.181C132.461 143.261 134.281 144.341 136.221 145.301C136.381 149.041 136.601 152.801 136.801 156.541C134.563 159.117 133.18 162.325 132.841 165.721V165.801ZM131.781 134.781C131.124 134.127 130.627 133.331 130.329 132.453C130.031 131.575 129.941 130.641 130.065 129.722C130.189 128.804 130.524 127.927 131.044 127.16C131.564 126.393 132.254 125.756 133.061 125.301C136.501 123.701 142.121 126.041 147.521 128.461C154.061 131.361 160.341 134.721 162.801 135.641C157.181 136.981 155.461 144.701 158.801 149.201C149.44 145.06 140.407 140.212 131.781 134.701V134.781ZM190.821 54.7805C199.221 57.1805 207.581 59.8005 215.841 62.6405C183.041 67.4205 187.181 106.801 167.841 122.321C164.941 125.601 161.201 129.181 161.241 133.521C161.081 133.421 143.581 125.121 138.801 123.781C136.801 123.941 139.281 118.641 140.201 116.801C144.581 109.421 151.761 104.801 156.061 97.4205C166.541 76.0005 165.201 59.6005 190.821 54.7805ZM189.161 54.2805C164.521 59.1605 163.861 78.5005 156.801 94.2805C150.161 107.341 138.321 111.821 137.141 123.581C135.353 123.367 133.55 123.841 132.098 124.907C130.646 125.973 129.653 127.55 129.321 129.321C128.461 128.141 116.301 123.101 117.101 121.501C116.461 99.8005 128.181 102.901 135.101 89.6805C143.941 69.4205 146.881 54.5805 169.101 50.1405C174.001 48.9805 182.621 52.9405 189.161 54.2805ZM99.5811 102.661C101.221 93.7405 112.121 91.9005 115.121 83.5405C118.861 74.6405 119.841 64.5205 127.281 57.5405C134.401 49.6605 146.141 46.7205 155.841 46.0205C158.081 46.1805 168.521 48.8605 169.541 49.1405C141.961 54.7005 142.441 74.3205 133.541 90.5405C121.061 107.041 116.341 101.261 116.341 121.721C113.021 119.721 101.661 113.321 99.3611 112.021C99.0358 108.904 99.1098 105.758 99.5811 102.661ZM99.5811 112.841C105.141 116.221 128.341 129.661 129.361 130.141C129.361 135.621 134.441 136.901 135.941 137.861C136.001 140.001 136.001 142.201 136.001 144.401C131.721 142.641 109.061 127.301 110.501 131.001C110.981 136.641 116.121 178.741 116.881 183.401C118.601 184.361 122.121 186.661 122.881 187.001V183.821C122.881 183.821 119.561 182.601 119.561 181.821C118.801 176.141 114.461 137.201 114.101 132.541C115.121 133.061 119.121 135.421 120.101 136.061C120.101 136.061 123.701 176.301 124.101 179.401C123.837 179.564 123.583 179.745 123.341 179.941C123.181 180.101 123.341 180.321 123.621 180.381C127.001 181.121 153.721 194.241 153.781 194.381C153.841 194.521 160.481 190.961 161.781 190.101C161.501 189.941 157.381 187.481 157.381 187.421C154.321 194.161 147.381 190.641 149.381 183.561C148.681 183.561 134.541 176.701 133.381 175.961C133.216 177.321 132.969 178.67 132.641 180.001C130.001 184.001 125.721 179.741 127.181 178.281C127.269 178.78 127.487 179.248 127.815 179.635C128.143 180.022 128.567 180.315 129.046 180.484C129.524 180.653 130.039 180.692 130.537 180.596C131.035 180.501 131.499 180.275 131.881 179.941C132.641 177.801 132.801 174.321 135.361 173.461C134.681 178.281 149.361 182.081 149.361 177.641C140.201 181.641 131.901 172.501 133.881 163.761C134.901 156.861 144.061 149.301 149.881 153.761C150.269 154.29 150.499 154.918 150.545 155.573C150.591 156.228 150.451 156.882 150.141 157.461C148.8 157.668 147.518 158.159 146.381 158.901C140.661 161.641 137.921 169.081 143.441 172.521C144.301 173.041 146.561 173.581 146.381 172.521C145.486 172.436 144.618 172.168 143.83 171.735C143.042 171.301 142.352 170.711 141.801 170.001C143.923 170.483 145.86 171.568 147.378 173.126C148.897 174.684 149.933 176.647 150.361 178.781C151.541 182.781 148.761 186.981 151.441 189.661C155.441 192.241 157.761 186.441 157.601 182.921C158.081 173.961 150.961 164.541 142.601 163.241C144.681 160.904 147.399 159.228 150.421 158.421C154.421 149.421 140.561 150.981 137.081 155.961C136.921 152.381 136.281 140.541 136.061 138.281C143.316 142.821 150.889 146.832 158.721 150.281C158.521 155.161 159.361 185.261 159.361 187.881C159.581 188.041 159.861 188.161 160.061 188.321C160.061 178.321 159.361 153.221 159.261 150.501C159.521 150.501 161.721 152.361 163.821 151.301C163.821 155.741 164.141 176.321 164.361 187.781C164.001 192.001 166.001 198.561 162.001 196.481C161.321 197.921 164.741 197.701 164.521 197.161C164.521 197.821 165.121 208.641 165.221 210.841C162.861 209.501 160.501 208.161 158.201 206.841C158.041 207.641 156.321 208.841 156.201 209.781C156.741 210.221 158.921 211.601 162.041 213.541C172.901 219.861 196.041 235.541 195.241 232.921C195.241 229.821 195.581 182.041 195.521 178.061C196.101 177.261 193.381 176.401 191.181 175.181C182.021 170.461 167.761 162.321 164.821 160.561C164.401 159.961 163.421 149.841 165.301 150.381C167.501 151.721 203.181 170.941 206.021 172.761C206.021 172.761 207.461 255.921 207.581 258.761C200.081 253.661 153.081 221.901 145.581 216.861C145.201 216.861 144.241 215.521 144.341 216.701C145.361 217.941 148.341 218.701 147.021 219.601C142.261 227.361 128.661 229.401 124.041 221.261C125.322 220.019 126.324 218.519 126.981 216.861C128.381 216.861 133.101 216.441 132.981 214.661C129.441 215.961 125.321 217.021 121.841 214.941C121.261 215.261 132.121 216.321 131.641 213.321C127.361 214.501 121.301 215.741 118.041 211.461C115.041 206.581 119.541 205.081 122.041 202.621C122.741 202.881 126.041 206.301 125.701 204.381C112.001 194.201 109.001 192.541 108.801 191.281C108.261 182.761 100.001 118.301 99.4811 112.841H99.5811ZM102.581 194.001C104.116 192.447 106.068 191.37 108.201 190.901C109.061 194.261 115.661 197.261 118.381 199.681C113.461 202.681 97.6611 202.361 102.581 194.001ZM82.9211 212.321C84.9211 203.281 98.9211 201.601 105.481 206.321C102.101 209.001 99.4811 214.521 102.201 218.321C95.8211 220.481 83.3011 220.581 82.9211 212.381V212.321ZM67.6611 218.541C70.8211 214.101 76.8611 213.181 82.1211 212.541C82.5011 216.341 81.9011 222.081 86.7811 223.841C81.8011 227.501 62.5611 227.341 67.6611 218.601V218.541ZM87.8011 224.381C89.8754 225.072 92.0365 225.469 94.2211 225.561C89.0211 232.421 66.0411 236.061 67.1211 224.001C70.5011 227.441 80.7411 228.721 87.8011 224.441V224.381ZM50.8811 231.661C55.2228 227.722 60.788 225.399 66.6411 225.081C66.6411 225.881 66.8411 227.221 67.1211 228.621C71.5611 234.401 83.5611 233.061 89.1211 230.281C88.9011 230.541 87.4611 232.281 88.2611 232.621C93.4011 223.621 106.261 225.781 113.381 229.521C109.161 224.761 99.8811 224.601 94.2011 226.941C96.9411 224.101 103.101 225.501 106.581 222.121C109.001 224.861 114.241 225.821 118.001 224.801C117.712 225.335 117.627 225.957 117.763 226.55C117.9 227.143 118.247 227.666 118.741 228.021C114.241 229.041 107.441 231.501 107.821 237.501C107.501 238.461 109.001 239.801 107.441 240.401C105.081 241.361 98.9211 242.701 98.6611 239.701C96.2411 229.201 75.2011 233.001 69.7211 236.541C63.3011 239.441 66.0211 242.541 61.7211 243.401C52.6411 245.441 41.2811 240.261 50.8811 231.721V231.661ZM47.4011 240.881C51.4011 244.881 58.2811 245.541 63.6411 243.781C62.9411 244.741 65.3011 247.101 63.6411 247.781C60.5644 248.792 57.2258 248.657 54.2412 247.399C51.2565 246.142 48.8271 243.848 47.4011 240.941V240.881ZM36.2011 252.881C37.8011 247.901 43.9811 245.821 48.8411 244.421C50.7974 246.524 53.3254 248.009 56.1147 248.695C58.9039 249.381 61.8327 249.237 64.5411 248.281C69.3611 259.001 35.0811 264.001 36.2011 252.881ZM29.1811 266.001C30.9795 263.11 33.494 260.733 36.4811 259.101C38.3411 264.401 45.1411 266.001 50.4811 265.901C45.8011 278.001 18.8011 283.401 29.1811 266.001ZM11.9411 282.001C15.2011 278.001 20.9411 276.921 26.0811 276.821C30.3611 276.981 32.3011 282.821 37.6411 282.061C40.0384 281.875 42.3826 281.258 44.5611 280.241C49.1211 284.001 43.7611 288.661 39.8411 289.941C32.7811 293.221 5.6611 292.261 12.0011 281.861L11.9411 282.001ZM12.2011 291.701C11.6772 290.299 11.2299 288.87 10.8611 287.421C18.3011 295.661 42.5811 293.801 46.6011 285.861C50.2411 300.141 15.3611 299.281 12.2011 291.561V291.701ZM13.5411 294.661C21.5411 299.101 32.3411 298.401 40.9811 295.881C40.8011 305.701 3.4211 308.501 13.5411 294.521V294.661ZM22.0011 310.641C16.9611 310.381 11.7211 307.001 11.7211 301.041C15.4611 305.761 23.6011 305.601 29.1811 304.361C23.8211 307.261 24.9611 311.021 22.0011 310.641ZM42.0011 323.661C33.7611 325.221 30.2011 323.221 25.8611 316.381C32.8811 320.881 44.2411 317.981 49.6011 313.701C50.4909 315.347 51.8023 316.728 53.4011 317.701C50.2306 320.711 46.2822 322.775 42.0011 323.661ZM50.4011 314.001C49.4811 312.001 50.7811 309.881 50.6211 307.141C55.0611 315.301 74.6211 318.401 79.9211 311.761C79.8176 313.701 79.5838 315.632 79.2211 317.541C76.7011 322.161 59.5811 324.101 50.4011 314.001ZM80.4011 313.841C82.3971 315.462 84.792 316.519 87.3356 316.899C89.8793 317.279 92.4783 316.968 94.8611 316.001C94.8613 316.649 95.0289 317.286 95.3478 317.85C95.6667 318.414 96.126 318.886 96.6811 319.221C96.6811 322.101 77.2811 324.261 80.4011 314.001V313.841ZM96.4011 318.181C95.1011 316.481 95.5811 314.181 94.7411 311.641C101.261 318.081 121.041 315.401 124.141 307.481C124.301 309.301 125.481 311.481 124.941 313.741C122.541 319.181 107.281 324.841 96.3211 318.241L96.4011 318.181ZM133.101 319.521C127.241 317.521 126.341 316.261 125.481 310.261C131.481 317.381 148.621 313.961 153.021 309.241C135.021 317.241 119.221 312.621 127.461 300.781C133.781 292.201 144.881 292.361 152.641 294.181C146.834 291.972 140.408 292.029 134.641 294.341C134.241 292.843 133.607 291.419 132.761 290.121C143.961 284.121 143.101 273.021 133.501 266.801C129.353 265.956 125.043 266.474 121.213 268.275C117.383 270.077 114.236 273.067 112.241 276.801C111.121 278.141 107.521 276.161 105.381 277.021C109.621 275.841 109.381 271.021 110.101 267.021C110.937 267.28 111.817 267.369 112.689 267.282C113.56 267.195 114.405 266.934 115.173 266.514C115.942 266.094 116.618 265.525 117.162 264.839C117.706 264.153 118.107 263.364 118.341 262.521C124.881 267.501 137.521 265.681 137.741 256.141C140.007 256.644 142.361 256.589 144.601 255.981C143.731 257.377 143.383 259.036 143.617 260.664C143.851 262.292 144.653 263.786 145.881 264.881C142.301 269.541 141.701 277.801 148.621 279.501C148.143 280.735 147.929 282.055 147.994 283.377C148.058 284.699 148.399 285.993 148.995 287.175C149.59 288.357 150.427 289.4 151.452 290.239C152.476 291.077 153.665 291.691 154.941 292.041C147.381 301.801 149.201 305.761 156.441 312.881C153.617 316.161 149.895 318.543 145.733 319.733C141.572 320.924 137.153 320.871 133.021 319.581L133.101 319.521ZM150.181 318.941C152.867 317.649 155.189 315.711 156.941 313.301C161.481 318.881 170.221 317.441 176.101 314.281C178.621 319.361 172.741 323.601 169.101 326.701C157.381 336.001 137.461 330.881 150.101 319.001L150.181 318.941ZM160.581 336.081C154.921 336.761 150.721 335.501 147.761 330.461C159.081 337.521 179.101 323.921 177.561 315.621C186.541 325.221 168.861 335.761 160.501 336.141L160.581 336.081ZM176.581 336.561C173.041 335.321 171.381 332.561 175.521 330.561C178.941 327.361 183.221 322.041 179.521 317.601C196.141 306.521 201.861 328.701 188.801 335.061C184.601 334.741 180.741 336.001 176.561 336.621L176.581 336.561ZM174.581 339.301C182.581 332.221 212.881 336.341 201.901 345.981C196.001 350.661 165.521 349.321 174.481 339.361L174.581 339.301ZM200.981 353.161C192.441 357.721 171.361 357.401 172.861 345.021C178.861 351.401 201.581 350.661 204.421 344.601C204.801 347.561 204.001 351.521 200.881 353.221L200.981 353.161ZM235.121 342.981C228.161 349.101 206.881 349.961 204.421 340.981C204.901 339.741 203.981 338.201 204.041 336.161C210.041 343.821 232.321 341.841 236.041 335.901C235.601 337.861 236.841 341.021 235.021 343.041L235.121 342.981ZM250.701 338.321C245.899 338.951 241.019 338.115 236.701 335.921C237.361 333.181 235.521 330.881 234.141 328.581C238.141 332.121 244.961 331.641 250.141 331.581C250.204 333.848 250.479 336.104 250.961 338.321H250.701ZM294.261 353.481C291.621 363.481 260.561 361.681 264.261 348.501C269.461 355.581 290.721 354.661 294.641 349.001C294.671 350.528 294.51 352.053 294.161 353.541L294.261 353.481ZM291.361 343.481C304.921 353.481 267.041 355.221 264.841 347.761C263.621 338.661 287.641 340.981 291.261 343.641L291.361 343.481ZM281.501 337.321C279.961 341.721 273.501 339.721 269.721 341.561C264.521 343.961 262.161 345.941 256.661 344.061C250.661 342.681 252.041 339.361 251.081 335.441C257.721 342.081 278.461 337.741 280.701 330.081C280.779 332.559 281.013 335.031 281.401 337.481L281.501 337.321ZM278.841 324.561C274.841 322.561 269.881 322.561 265.161 323.061C265.981 319.581 261.801 317.501 258.641 317.061C261.481 311.821 268.921 305.641 274.921 311.061C277.061 312.501 279.421 311.701 279.681 314.961C280.381 320.001 277.501 320.541 280.541 326.541C280.066 325.822 279.454 325.204 278.741 324.721L278.841 324.561ZM280.281 323.981C287.621 329.381 299.461 327.981 306.961 323.341C307.209 325.18 307.563 327.003 308.021 328.801C299.541 335.381 282.461 335.621 280.181 324.141L280.281 323.981ZM339.421 323.381C341.161 335.581 316.381 337.381 310.221 331.381C308.221 329.241 308.341 326.081 307.501 322.861C312.841 331.861 336.801 328.441 338.781 319.381C338.841 320.441 339.121 322.161 339.321 323.541L339.421 323.381ZM337.761 316.641C339.101 327.521 319.341 328.221 313.221 326.061C300.481 320.501 312.001 312.781 319.921 312.241C331.661 321.241 336.381 312.001 337.661 316.801L337.761 316.641ZM338.181 312.521C336.315 314.035 334.068 315.006 331.687 315.327C329.305 315.648 326.881 315.307 324.681 314.341C337.121 314.761 344.841 297.521 338.561 287.381C348.221 292.161 344.761 306.581 338.001 312.681L338.181 312.521ZM354.181 311.501C350.089 311.421 346.07 310.394 342.441 308.501C343.457 306.779 344.218 304.92 344.701 302.981C351.881 306.041 362.321 306.561 367.901 301.701C366.601 311.381 361.761 311.061 354.161 311.661L354.181 311.501Z" fill="#67ADF9"/>
<path d="M146.001 216C156.441 212.58 161.541 201.44 162.121 190.88C160.901 191.64 154.621 194.88 154.361 194.88C155.721 202.32 152.841 212 146.001 216Z" fill="#67ADF9"/>
<path d="M140.521 216.461C150.741 216.941 155.081 202.261 153.421 194.981C150.421 193.681 127.821 182.541 124.001 180.821C122.001 194.121 125.661 215.761 140.521 216.461ZM133.861 206.601C134.361 204.941 136.601 200.161 136.441 199.741C133.441 197.061 133.021 190.101 138.261 192.821C141.101 194.321 143.021 201.141 139.121 201.081C139.281 201.841 141.901 210.341 141.001 210.461C140.521 210.461 133.601 207.461 133.861 206.601Z" fill="#67ADF9"/>
</svg>
