<svg width="400" height="400" viewBox="0 0 400 400" fill="none" xmlns="http://www.w3.org/2000/svg">
<path fill-rule="evenodd" clip-rule="evenodd" d="M123.421 231.58C120.444 236.594 116.064 240.627 110.821 243.18C98.5213 248.8 84.0413 241.32 80.3413 238.9C80.2941 238.859 80.2338 238.837 80.1713 238.837C80.1089 238.837 80.0486 238.859 80.0013 238.9C79.9795 238.921 79.9622 238.945 79.9503 238.973C79.9385 239 79.9323 239.03 79.9323 239.06C79.9323 239.09 79.9385 239.12 79.9503 239.147C79.9622 239.175 79.9795 239.199 80.0013 239.22C84.4761 242.764 89.7609 245.142 95.3813 246.14C93.7813 247.1 84.9413 252.84 75.2413 253.34C59.2413 254.16 48.7613 242.74 45.6213 239.34C34.4413 226.98 35.3413 220.38 23.9813 213.88C19.7166 211.478 15.0449 209.885 10.2013 209.18C10.1407 209.174 10.0801 209.191 10.0318 209.229C9.98356 209.266 9.9512 209.32 9.94134 209.38C9.93562 209.412 9.9363 209.444 9.94332 209.475C9.95034 209.507 9.96356 209.536 9.9822 209.562C10.0008 209.588 10.0245 209.61 10.0519 209.627C10.0792 209.644 10.1096 209.655 10.1413 209.66C14.8781 210.476 19.426 212.15 23.5613 214.6C34.6813 221.26 33.3813 227.52 44.7613 240.12C47.9613 243.66 58.7613 255.54 75.3013 254.4C79.1643 254.106 82.9606 253.23 86.5613 251.8C90.2381 250.428 93.7154 248.571 96.9013 246.28C109.141 248.12 118.101 242.68 123.781 231.8C123.81 231.744 123.815 231.679 123.796 231.62C123.778 231.56 123.736 231.51 123.681 231.48C123.633 231.468 123.582 231.47 123.535 231.488C123.489 231.506 123.449 231.538 123.421 231.58ZM156.661 175.56L145.861 174.76L144.321 180.6L155.501 181.32L156.661 175.56ZM208.001 193.72C208.137 193.729 208.272 193.689 208.381 193.609C208.491 193.528 208.569 193.412 208.601 193.28L209.461 190.08C209.494 190.004 209.511 189.923 209.511 189.84C209.511 189.757 209.494 189.676 209.461 189.6C209.416 189.527 209.354 189.466 209.282 189.421C209.209 189.376 209.127 189.348 209.041 189.34L143.041 184.72C143.01 184.714 142.977 184.715 142.946 184.722C142.915 184.729 142.885 184.742 142.859 184.761C142.833 184.779 142.811 184.803 142.794 184.831C142.777 184.858 142.766 184.888 142.761 184.92C142.061 187.92 141.861 188.22 142.001 188.42C142.022 188.449 142.049 188.473 142.08 188.49C142.111 188.508 142.146 188.518 142.181 188.52L208.001 193.72ZM158.601 189.1L142.381 188L143.101 185.2C144.681 185.32 204.821 190.14 208.121 190.38L207.581 192.38C205.621 192.36 163.641 189.42 158.601 189.1ZM170.001 194.34C170.001 194.34 165.741 193.96 162.001 193.72C159.181 193.54 156.681 193.44 156.681 193.44C156.592 193.432 156.504 193.456 156.43 193.507C156.357 193.558 156.305 193.634 156.281 193.72L155.601 197.06C155.587 197.091 155.58 197.125 155.58 197.16C155.58 197.195 155.587 197.229 155.601 197.26C155.659 197.281 155.723 197.281 155.781 197.26L163.781 198.16L169.081 198.62C169.218 198.633 169.354 198.595 169.465 198.514C169.576 198.433 169.653 198.314 169.681 198.18L170.541 194.98C170.574 194.904 170.591 194.823 170.591 194.74C170.591 194.657 170.574 194.576 170.541 194.5C170.475 194.426 170.389 194.372 170.294 194.344C170.199 194.316 170.097 194.314 170.001 194.34ZM168.661 197.5L163.841 197.18L156.181 196.9L156.961 194.22C157.701 194.22 159.721 194.56 161.961 194.78C164.741 195.06 167.841 195.32 169.201 195.44L168.661 197.5ZM201.701 200.84C196.881 195.1 187.861 203.32 192.921 208.84C193.947 209.864 195.325 210.459 196.774 210.504C198.223 210.549 199.634 210.039 200.721 209.08C201.248 209.68 201.902 210.155 202.635 210.47C203.369 210.784 204.164 210.931 204.961 210.9C206.471 210.832 207.9 210.196 208.961 209.12C209.565 208.662 210.069 208.085 210.44 207.424C210.811 206.763 211.042 206.033 211.118 205.279C211.195 204.524 211.115 203.763 210.884 203.041C210.653 202.319 210.277 201.652 209.777 201.082C209.277 200.512 208.665 200.051 207.98 199.728C207.294 199.405 206.549 199.227 205.792 199.204C205.034 199.181 204.28 199.315 203.576 199.596C202.873 199.878 202.234 200.301 201.701 200.84ZM192.301 204.68C192.292 203.671 192.597 202.684 193.173 201.856C193.75 201.029 194.57 200.401 195.52 200.06C196.469 199.719 197.502 199.682 198.473 199.955C199.445 200.227 200.307 200.795 200.941 201.58C200.12 202.432 199.592 203.523 199.433 204.696C199.275 205.868 199.495 207.061 200.061 208.1C199.4 208.713 198.574 209.119 197.685 209.268C196.796 209.417 195.883 209.302 195.058 208.939C194.233 208.575 193.533 207.978 193.043 207.222C192.553 206.465 192.295 205.581 192.301 204.68ZM200.781 207.34C200.33 206.505 200.133 205.557 200.215 204.611C200.297 203.666 200.654 202.765 201.241 202.02C201.708 202.85 201.914 203.802 201.832 204.751C201.75 205.7 201.384 206.602 200.781 207.34ZM208.241 208.24C207.8 208.689 207.274 209.045 206.694 209.288C206.114 209.532 205.491 209.657 204.861 209.657C204.232 209.657 203.609 209.532 203.029 209.288C202.449 209.045 201.922 208.689 201.481 208.24C202.349 207.29 202.874 206.076 202.972 204.793C203.07 203.51 202.735 202.231 202.021 201.16C202.96 200.335 204.188 199.917 205.435 199.998C206.683 200.078 207.847 200.651 208.671 201.59C209.496 202.529 209.914 203.757 209.834 205.004C209.753 206.251 209.18 207.415 208.241 208.24ZM253.321 256C251.622 256.717 250.213 257.985 249.321 259.6C248.985 260.168 248.795 260.81 248.767 261.469C248.74 262.128 248.875 262.784 249.162 263.378C249.45 263.972 249.879 264.485 250.413 264.873C250.946 265.261 251.568 265.511 252.221 265.6C254.092 265.959 256.03 265.677 257.721 264.8C266.001 260.8 261.541 251.64 253.321 256ZM250.001 262.98C249.744 262.383 249.647 261.73 249.721 261.084C249.794 260.438 250.036 259.823 250.421 259.3C254.201 253.16 264.041 255.62 260.221 261.3C257.741 265.02 251.541 266 250.001 262.98ZM267.841 263.48C266.009 263.217 264.14 263.561 262.521 264.46C256.941 266.96 256.341 273.02 261.401 274.16C263.273 274.508 265.207 274.227 266.901 273.36C272.561 270.54 272.801 264.42 267.841 263.48ZM262.441 273.16C255.621 272.7 259.681 263.44 266.841 264.18C274.001 264.92 269.241 273.6 262.441 273.16ZM280.161 274C279.842 273.421 279.391 272.924 278.846 272.549C278.301 272.174 277.676 271.931 277.021 271.84C275.197 271.677 273.364 272.018 271.72 272.825C270.077 273.633 268.687 274.876 267.701 276.42C267.374 276.993 267.184 277.635 267.146 278.294C267.107 278.953 267.222 279.613 267.481 280.22C267.79 280.817 268.232 281.335 268.773 281.734C269.314 282.133 269.94 282.402 270.601 282.52C272.466 282.869 274.394 282.588 276.081 281.72C279.021 280.32 281.641 276.96 280.161 274ZM271.641 281.5C271.002 281.519 270.369 281.367 269.807 281.062C269.244 280.756 268.773 280.307 268.441 279.76C268.178 279.161 268.078 278.503 268.152 277.853C268.226 277.203 268.47 276.585 268.861 276.06C269.595 274.86 270.658 273.896 271.924 273.282C273.189 272.669 274.605 272.432 276.001 272.6C276.661 272.621 277.303 272.818 277.862 273.169C278.421 273.521 278.876 274.014 279.181 274.6C280.661 277.48 276.181 281.86 271.641 281.56V281.5ZM286.221 280.32C284.395 280.039 282.527 280.384 280.921 281.3C279.227 282.025 277.82 283.291 276.921 284.9C276.594 285.473 276.404 286.115 276.366 286.774C276.327 287.433 276.442 288.093 276.701 288.7C277.01 289.297 277.452 289.815 277.993 290.214C278.534 290.613 279.16 290.882 279.821 291C281.688 291.353 283.619 291.064 285.301 290.18C290.921 287.38 291.241 281.26 286.221 280.32ZM287.861 286.54C287.062 287.649 286.001 288.543 284.773 289.143C283.545 289.743 282.187 290.031 280.821 289.98C280.185 289.997 279.555 289.845 278.996 289.539C278.438 289.234 277.97 288.785 277.641 288.24C277.378 287.641 277.278 286.983 277.352 286.333C277.426 285.683 277.671 285.065 278.061 284.54C278.79 283.322 279.856 282.341 281.13 281.716C282.404 281.092 283.832 280.85 285.241 281.02C285.896 280.984 286.546 281.143 287.11 281.478C287.673 281.813 288.125 282.308 288.406 282.9C288.687 283.492 288.785 284.155 288.688 284.803C288.591 285.451 288.303 286.056 287.861 286.54Z" fill="#67ADF9"/>
<path fill-rule="evenodd" clip-rule="evenodd" d="M265.042 257.82C266.911 258.129 268.829 257.846 270.529 257.01C272.229 256.175 273.625 254.829 274.522 253.16C276.682 248.48 271.562 245.16 266.162 248.12C260.542 250.62 260.002 256.7 265.042 257.82ZM270.482 247.82C277.302 248.54 273.002 257.24 266.062 256.8C259.122 256.36 263.302 247.1 270.482 247.84V247.82ZM280.662 255.56C278.835 255.286 276.97 255.631 275.362 256.54C266.902 260.32 271.242 269.58 279.722 265.44C285.362 262.64 285.682 256.5 280.662 255.56ZM279.202 264.38C274.422 266.76 269.902 264.02 272.502 259.78C273.246 258.577 274.315 257.609 275.585 256.987C276.855 256.364 278.275 256.112 279.682 256.26C284.642 256.78 284.002 262 279.202 264.38ZM292.902 270C293.24 269.422 293.428 268.769 293.448 268.1C293.469 267.431 293.321 266.768 293.018 266.171C292.716 265.574 292.268 265.062 291.717 264.683C291.165 264.304 290.527 264.069 289.862 264C288.035 263.814 286.193 264.144 284.545 264.954C282.897 265.764 281.51 267.02 280.542 268.58C280.214 269.153 280.024 269.795 279.986 270.454C279.948 271.113 280.063 271.773 280.322 272.38C282.362 276.66 290.622 274.92 292.902 270ZM281.682 268.2C282.431 266.997 283.504 266.03 284.777 265.407C286.05 264.785 287.472 264.533 288.882 264.68C289.536 264.644 290.187 264.803 290.75 265.138C291.314 265.473 291.765 265.968 292.046 266.56C292.327 267.152 292.425 267.815 292.328 268.463C292.232 269.111 291.944 269.716 291.502 270.2C287.702 275.84 278.102 274 281.682 268.2ZM293.762 273.38C292.063 274.099 290.655 275.366 289.762 276.98C287.422 281.5 292.442 284.98 298.142 282.26C299.871 281.459 301.28 280.1 302.142 278.4C302.437 277.799 302.59 277.139 302.59 276.47C302.59 275.801 302.437 275.141 302.142 274.54C300.702 271.7 296.602 271.84 293.762 273.38ZM300.702 278.62C299.908 279.738 298.841 280.633 297.602 281.22C292.782 283.6 288.302 280.8 290.882 276.62C291.662 275.428 292.737 274.457 294.002 273.8C295.291 273.212 296.711 272.971 298.122 273.1C298.776 273.064 299.427 273.223 299.99 273.558C300.554 273.893 301.005 274.388 301.286 274.98C301.567 275.572 301.665 276.235 301.568 276.883C301.472 277.531 301.184 278.136 300.742 278.62H300.702Z" fill="#67ADF9"/>
<path fill-rule="evenodd" clip-rule="evenodd" d="M277.501 249.58C282.901 250.8 289.181 245.24 287.081 241.06C285.581 238.22 281.501 238.34 278.621 239.88C273.061 242.36 272.441 248.44 277.501 249.58ZM282.941 239.58C289.761 240.3 285.381 249 278.541 248.54C271.701 248.08 275.881 238.86 282.941 239.6V239.58ZM287.821 248.3C279.301 252.1 283.821 261.28 292.201 257.18C300.581 253.08 296.001 243.88 287.821 248.3ZM294.761 253.54C293.978 254.66 292.917 255.557 291.681 256.14C286.961 258.46 282.321 255.82 284.961 251.54C288.721 245.44 298.581 247.86 294.761 253.54ZM301.381 265.6C303.107 264.795 304.515 263.437 305.381 261.74C305.682 261.141 305.838 260.48 305.838 259.81C305.838 259.14 305.682 258.479 305.381 257.88C303.881 255.02 299.781 255.2 296.941 256.72C288.641 260.46 292.881 269.76 301.381 265.6ZM301.381 256.44C302.043 256.395 302.704 256.551 303.276 256.888C303.848 257.224 304.306 257.725 304.589 258.326C304.871 258.926 304.967 259.598 304.862 260.254C304.757 260.909 304.457 261.518 304.001 262C300.201 267.64 290.581 265.86 294.201 260C294.934 258.793 295.993 257.819 297.257 257.189C298.52 256.559 299.936 256.299 301.341 256.44H301.381ZM306.221 265.14C304.518 265.852 303.108 267.121 302.221 268.74C301.885 269.308 301.695 269.95 301.667 270.609C301.639 271.268 301.775 271.924 302.062 272.518C302.349 273.112 302.779 273.625 303.312 274.013C303.846 274.401 304.467 274.651 305.121 274.74C306.986 275.1 308.917 274.818 310.601 273.94C319.021 269.84 314.381 260.74 306.221 265.14ZM302.941 272C302.677 271.405 302.577 270.75 302.651 270.103C302.725 269.456 302.97 268.841 303.361 268.32C306.121 263.82 312.441 263.9 313.721 266.7C316.001 271.58 305.201 276.54 302.941 272ZM286.861 239.04C287.167 239.639 287.608 240.159 288.15 240.558C288.691 240.957 289.318 241.225 289.981 241.34C291.847 241.645 293.761 241.359 295.457 240.524C297.153 239.689 298.545 238.345 299.441 236.68C299.751 236.087 299.922 235.431 299.939 234.762C299.957 234.092 299.82 233.428 299.541 232.82C296.561 227.12 284.201 233.24 286.861 239.04ZM295.421 231.36C296.075 231.324 296.726 231.483 297.289 231.818C297.853 232.153 298.304 232.648 298.585 233.24C298.866 233.832 298.965 234.495 298.868 235.143C298.771 235.791 298.483 236.396 298.041 236.88C297.247 237.998 296.18 238.893 294.941 239.48C292.541 240.66 288.941 240.82 287.821 238.58C286.341 235.8 290.221 230.82 295.421 231.36Z" fill="#67ADF9"/>
<path fill-rule="evenodd" clip-rule="evenodd" d="M296.002 247.46C298.882 253.46 311.742 247.28 308.682 241.22C308.356 240.648 307.904 240.157 307.36 239.786C306.815 239.415 306.194 239.174 305.542 239.08C300.842 238.2 294.002 243.06 296.002 247.46ZM300.442 240.48C301.732 239.896 303.15 239.648 304.562 239.76C305.221 239.785 305.861 239.983 306.419 240.334C306.978 240.685 307.434 241.177 307.742 241.76C308.822 244.04 306.542 246.78 304.082 247.98C297.042 251.4 293.542 244.24 300.502 240.48H300.442Z" fill="#67ADF9"/>
<path fill-rule="evenodd" clip-rule="evenodd" d="M313.862 257.36C315.591 256.559 317 255.2 317.862 253.5C318.2 252.922 318.388 252.269 318.408 251.6C318.428 250.931 318.281 250.268 317.978 249.671C317.676 249.074 317.228 248.562 316.677 248.183C316.125 247.804 315.487 247.569 314.822 247.5C312.993 247.234 311.128 247.586 309.522 248.5C301.102 252.2 305.342 261.52 313.862 257.36ZM309.702 248.9C310.989 248.306 312.409 248.058 313.822 248.18C314.48 248.205 315.121 248.403 315.679 248.754C316.237 249.105 316.693 249.597 317.002 250.18C317.232 250.778 317.3 251.426 317.198 252.058C317.096 252.691 316.828 253.285 316.422 253.78C315.645 254.905 314.581 255.803 313.342 256.38C312.107 257.014 310.727 257.311 309.342 257.24C304.422 256.82 304.962 251.44 309.702 248.9ZM314.442 264.3C316.442 268.56 324.722 266.9 327.042 261.92C327.336 261.319 327.49 260.659 327.49 259.99C327.49 259.321 327.336 258.661 327.042 258.06C326.719 257.513 326.28 257.044 325.754 256.687C325.228 256.331 324.629 256.096 324.002 256C322.169 255.737 320.3 256.081 318.682 256.98C315.742 258.2 313.122 261.36 314.442 264.3ZM318.902 257.3C320.183 256.709 321.597 256.468 323.002 256.6C323.663 256.624 324.307 256.821 324.869 257.172C325.431 257.523 325.89 258.016 326.202 258.6C326.432 259.198 326.5 259.846 326.398 260.478C326.296 261.111 326.028 261.705 325.622 262.2C321.822 267.86 312.222 266.06 315.822 260.2C316.582 258.985 317.643 257.986 318.902 257.3Z" fill="#67ADF9"/>
<path fill-rule="evenodd" clip-rule="evenodd" d="M390.001 282.34C377.261 267.12 356.101 247.28 338.001 236.34C324.701 228.34 311.021 226.64 302.001 228.92C298.945 226.456 295.865 224.023 292.761 221.62C285.521 216.04 278.181 210.64 271.381 205.82C256.461 195.22 244.241 187.4 241.721 186.38C239.348 185.491 236.865 184.926 234.341 184.7C230.808 184.392 227.254 184.392 223.721 184.7L224.621 179.34C224.748 178.576 224.714 177.794 224.519 177.044C224.325 176.295 223.975 175.594 223.492 174.989C223.009 174.383 222.404 173.886 221.717 173.53C221.029 173.173 220.274 172.966 219.501 172.92C137.701 168.2 143.241 168.22 141.201 169.64C138.581 171.48 139.341 173.1 133.821 189.88C125.421 182.14 115.061 173.62 105.661 166.42C81.1409 147.68 62.4809 154.26 42.6209 151.76C33.4609 150.6 23.7609 148.84 23.7609 148.84C23.7293 148.834 23.6969 148.835 23.6656 148.842C23.6343 148.849 23.6047 148.862 23.5786 148.881C23.5525 148.9 23.5304 148.923 23.5136 148.951C23.4968 148.978 23.4857 149.008 23.4809 149.04C23.4744 149.103 23.4911 149.166 23.5279 149.218C23.5648 149.269 23.6191 149.306 23.6809 149.32C23.8809 149.32 46.7209 153.72 55.2609 153.58C64.0649 152.881 72.9241 153.556 81.5209 155.58C90.0552 157.98 98.0244 162.059 104.961 167.58C116.909 176.599 128.303 186.33 139.081 196.72C142.747 200.085 145.912 203.958 148.481 208.22C150.481 212.22 147.501 212.78 144.481 213.28C139.841 214.08 132.621 213.14 123.481 208.84C114.341 204.54 103.141 196.32 91.4809 182.84C91.4809 182.84 91.0009 182.98 90.9009 183.06C90.8791 183.081 90.8617 183.105 90.8499 183.133C90.838 183.16 90.8319 183.19 90.8319 183.22C90.8319 183.25 90.838 183.28 90.8499 183.307C90.8617 183.335 90.8791 183.359 90.9009 183.38C102.401 197.18 113.561 205.38 123.021 210C128.12 212.694 133.699 214.359 139.441 214.9C137.31 218.836 134.508 222.369 131.161 225.34C128.346 227.548 125.099 229.143 121.631 230.021C118.162 230.9 114.548 231.042 111.021 230.44C103.889 229.384 97.0681 226.805 91.0209 222.88C91.0003 222.858 90.9755 222.841 90.948 222.829C90.9205 222.817 90.8908 222.811 90.8609 222.811C90.8309 222.811 90.8013 222.817 90.7738 222.829C90.7462 222.841 90.7214 222.858 90.7009 222.88C90.6791 222.901 90.6617 222.925 90.6498 222.953C90.638 222.98 90.6319 223.01 90.6319 223.04C90.6319 223.07 90.638 223.1 90.6498 223.127C90.6617 223.155 90.6791 223.179 90.7009 223.2C96.6465 227.625 103.567 230.561 110.881 231.76C114.601 232.38 118.411 232.196 122.054 231.219C125.698 230.243 129.089 228.497 132.001 226.1C135.593 222.954 138.535 219.135 140.661 214.86C143.221 215.068 145.793 214.656 148.161 213.66L174.701 216C171.101 218.32 166.041 225.6 163.841 229.28C163.041 230.6 162.581 231.44 162.581 231.44C162.54 231.487 162.518 231.548 162.518 231.61C162.518 231.672 162.54 231.733 162.581 231.78C161.901 233.18 158.721 241.48 169.221 254.06C177.221 263.7 192.841 269.12 201.601 261.6L215.921 270.96C211.521 270.06 205.021 269.7 201.261 272.22C193.261 277.62 205.681 285.38 214.781 290.9C215.661 291.44 222.781 295.78 232.981 300.7C235.132 304.117 238.049 306.986 241.501 309.08C245.457 311.433 249.941 312.753 254.541 312.92C256.584 315.325 258.977 317.408 261.641 319.1C268.161 323.1 277.101 324.7 299.921 323.94C314.09 323.473 328.213 322.083 342.201 319.78C346.061 326.56 353.161 337.52 353.681 338.28C354.521 339.52 357.361 343.54 357.881 344.28C357.927 344.316 357.983 344.335 358.041 344.335C358.099 344.335 358.155 344.316 358.201 344.28C358.24 344.236 358.262 344.179 358.262 344.12C358.262 344.061 358.24 344.004 358.201 343.96C357.701 343.14 355.261 338.88 354.501 337.6C354.361 337.36 347.601 326.54 342.661 319.6C345.321 319.14 347.901 318.66 350.421 318.16C350.45 318.155 350.478 318.145 350.503 318.129C350.528 318.113 350.549 318.092 350.566 318.068C350.583 318.044 350.595 318.017 350.6 317.988C350.606 317.959 350.607 317.929 350.601 317.9C350.596 317.868 350.585 317.838 350.568 317.811C350.551 317.783 350.529 317.76 350.503 317.741C350.477 317.722 350.447 317.709 350.416 317.702C350.385 317.695 350.352 317.694 350.321 317.7C333.615 320.523 316.736 322.194 299.801 322.7C277.441 323.36 268.601 321.96 262.141 318.04C254.801 313.58 241.761 295.58 239.321 287.76C235.161 274.42 247.321 277.98 254.941 286C264.361 295.82 268.021 304.36 274.061 308C278.15 310.283 282.549 311.961 287.121 312.98C287.11 312.998 287.105 313.019 287.105 313.04C287.105 313.061 287.11 313.082 287.121 313.1C287.13 313.128 287.144 313.153 287.163 313.175C287.182 313.197 287.206 313.215 287.232 313.228C287.258 313.242 287.286 313.249 287.315 313.251C287.344 313.253 287.373 313.249 287.401 313.24C301.401 308.8 315.581 301.46 325.281 292.68C329.723 288.869 333.326 284.176 335.861 278.9C337.529 275.29 338.159 271.288 337.681 267.34C337.321 264.68 335.321 261.2 332.101 257.2C326.326 250.445 319.997 244.183 313.181 238.48C309.741 235.48 306.081 232.48 302.301 229.4C308.178 228.374 314.207 228.619 319.981 230.12C326.081 231.614 331.907 234.064 337.241 237.38C350.121 245.26 364.061 257.38 374.901 267.8C380.901 273.62 386.061 278.9 389.421 282.72C389.461 282.765 389.517 282.793 389.577 282.796C389.637 282.8 389.696 282.78 389.741 282.74C389.786 282.7 389.813 282.644 389.817 282.584C389.821 282.524 389.801 282.465 389.761 282.42L390.001 282.34ZM148.841 213.24C150.481 212.16 151.301 210.86 149.741 207.72C147.23 203.514 144.14 199.684 140.561 196.34C154.001 197.94 153.481 197.66 153.621 197.16L154.461 193.96C154.494 193.881 154.512 193.796 154.512 193.71C154.512 193.624 154.494 193.539 154.461 193.46C154.409 193.391 154.343 193.333 154.267 193.292C154.191 193.25 154.107 193.226 154.021 193.22C140.141 192.22 140.481 192.14 140.361 192.62L139.781 195.46C138.081 193.76 136.981 192.7 135.021 190.88C141.021 173.54 139.401 171.78 141.681 170.22C143.681 168.9 137.561 169.12 219.481 174.04C220.088 174.079 220.68 174.245 221.218 174.528C221.757 174.81 222.23 175.203 222.607 175.68C222.984 176.157 223.257 176.708 223.408 177.297C223.558 177.886 223.583 178.5 223.481 179.1L217.641 214.24C217.457 215.316 216.88 216.286 216.021 216.96C215.163 217.645 214.075 217.975 212.981 217.88L148.841 213.24ZM140.141 195.78L140.921 193.12C145.121 193.64 148.921 193.98 153.161 194.34L152.621 196.34L147.801 196C146.481 196 140.721 195.8 140.141 195.78ZM215.461 289.78C210.841 286.92 203.921 282.4 201.041 278.86C198.161 275.32 201.261 272.46 205.501 271.44C209.741 270.42 214.861 271.74 217.501 272.32L222.581 275.06C225.01 283.606 228.363 291.861 232.581 299.68C224.601 295.4 215.641 290 215.461 289.84V289.78ZM239.461 279.1C239.461 279.1 236.901 281.38 238.801 287.9C240.941 295.18 250.581 308.12 254.081 312.22C249.813 311.765 245.708 310.335 242.081 308.04C238.186 305.583 235.017 302.131 232.901 298.04C229.089 290.57 225.834 282.829 223.161 274.88C222.141 271.88 221.541 269.82 221.341 269.14C221.264 268.624 221.298 268.098 221.439 267.596C221.581 267.094 221.826 266.627 222.161 266.227C222.495 265.826 222.91 265.501 223.379 265.273C223.848 265.044 224.36 264.917 224.881 264.9C231.561 264.22 239.061 278.74 239.501 279.08L239.461 279.1ZM312.521 239.22C319.286 244.882 325.567 251.096 331.301 257.8C332.533 259.295 333.662 260.872 334.681 262.52C333.041 263.8 331.361 265.04 329.701 266.26C324.381 270.26 316.101 275.92 308.241 280.92C296.501 288.4 288.101 292.92 280.241 297.4C280.201 297.444 280.18 297.501 280.18 297.56C280.18 297.619 280.201 297.676 280.241 297.72C280.254 297.747 280.272 297.77 280.294 297.79C280.316 297.809 280.342 297.824 280.37 297.834C280.398 297.843 280.427 297.847 280.457 297.844C280.486 297.842 280.515 297.834 280.541 297.82C290.341 293.077 299.839 287.734 308.981 281.82C316.343 277.199 323.447 272.178 330.261 266.78C331.861 265.5 333.441 264.2 335.021 262.78C335.866 264.132 336.45 265.632 336.741 267.2C337.207 270.94 336.618 274.737 335.041 278.16C332.604 283.318 329.124 287.915 324.821 291.66C315.281 300.46 301.341 307.94 287.461 312.5C286.661 310.5 280.321 295.56 269.461 285.78C257.901 275.26 190.481 225.26 181.161 223.98C172.961 222.82 169.841 223.62 164.861 228.88C168.221 224.46 173.581 217 175.621 215.76L197.081 217.52C195.361 218.6 193.701 219.7 192.121 220.76C192.121 220.76 220.381 239.2 237.661 251.82C237.661 251.82 280.621 230.38 289.181 225.58C289.181 225.58 251.001 197.58 242.661 191.76C242.661 191.76 232.661 196.88 220.441 203.76L223.581 185.54C227.125 185.271 230.686 185.325 234.221 185.7C240.221 186.38 241.221 185.7 270.461 206.8C277.221 211.66 284.781 216.8 292.001 222.4C299.221 228 306.261 233.78 312.601 239.28L312.521 239.22ZM274.221 144.26L253.241 187.64C253.173 187.76 253.154 187.902 253.188 188.036C253.221 188.17 253.305 188.286 253.421 188.36C253.525 188.446 253.656 188.493 253.791 188.493C253.926 188.493 254.057 188.446 254.161 188.36L290.701 151.72C299.04 153.827 307.778 153.772 316.09 151.561C324.402 149.349 332.012 145.053 338.201 139.08C342.846 134.595 346.539 129.219 349.057 123.274C351.576 117.329 352.87 110.937 352.861 104.48C352.811 98.0131 351.487 91.6194 348.963 85.665C346.439 79.7107 342.765 74.3126 338.153 69.7797C333.54 65.2469 328.079 61.6683 322.081 59.2489C316.084 56.8295 309.668 55.6167 303.201 55.68C275.601 55.68 253.201 77.46 253.201 104.42C253.202 112.35 255.167 120.155 258.921 127.14C262.604 133.97 267.846 139.835 274.221 144.26ZM303.201 56.64C327.201 56.64 351.661 75.56 351.661 104.42C351.769 110.68 350.581 116.895 348.172 122.674C345.762 128.453 342.184 133.671 337.661 138C332.358 143.23 325.911 147.155 318.83 149.463C311.749 151.772 304.227 152.401 296.861 151.3C294.782 151.189 292.712 150.955 290.661 150.6C290.101 150.46 292.401 148.6 255.721 185.08L275.461 144.3C275.527 144.177 275.543 144.034 275.506 143.9C275.468 143.766 275.381 143.651 275.261 143.58C268.883 139.23 263.648 133.405 260.001 126.6C256.316 119.788 254.384 112.165 254.381 104.42C254.301 78.12 276.201 56.68 303.201 56.64Z" fill="#67ADF9"/>
<path fill-rule="evenodd" clip-rule="evenodd" d="M303.561 133.54C309.408 133.54 315.124 131.806 319.986 128.557C324.847 125.308 328.636 120.69 330.873 115.287C333.11 109.885 333.694 103.94 332.552 98.2058C331.409 92.4711 328.592 87.2041 324.456 83.0709C320.32 78.9376 315.051 76.1239 309.316 74.9855C303.58 73.8472 297.636 74.4355 292.235 76.6759C286.834 78.9163 282.219 82.7081 278.973 87.5719C275.727 92.4356 273.997 98.1527 274.001 104C274.006 111.836 277.123 119.35 282.666 124.889C288.209 130.428 295.725 133.54 303.561 133.54ZM325.121 98.8C326.259 103.487 325.836 108.417 323.917 112.842C321.999 117.267 318.689 120.945 314.49 123.319C310.291 125.692 305.433 126.63 300.652 125.992C295.871 125.353 291.43 123.172 288.001 119.78L325.121 98.8ZM303.561 81.8C307.225 81.8091 310.83 82.7275 314.052 84.4728C317.274 86.2181 320.012 88.7358 322.021 91.8L283.441 113.28C282.104 110.363 281.421 107.189 281.441 103.98C281.441 98.1079 283.77 92.4754 287.916 88.3175C292.063 84.1597 297.689 81.8159 303.561 81.8Z" fill="#F4A462"/>
</svg>
