<svg width="46" height="10" viewBox="0 0 46 10" fill="none" xmlns="http://www.w3.org/2000/svg">
<path d="M44.8142 5.19183H43.4392V3.81683H43.0698V5.56245H44.8142V5.19183ZM43.2561 7.93745C42.713 7.93745 42.1822 7.77642 41.7307 7.47473C41.2792 7.17304 40.9273 6.74423 40.7194 6.24253C40.5116 5.74084 40.4573 5.18878 40.5632 4.65618C40.6692 4.12359 40.9306 3.63436 41.3146 3.25038C41.6986 2.8664 42.1878 2.6049 42.7204 2.49896C43.253 2.39302 43.8051 2.44739 44.3068 2.6552C44.8085 2.86301 45.2373 3.21492 45.539 3.66644C45.8407 4.11796 46.0017 4.6488 46.0017 5.19183C45.9978 5.9188 45.7072 6.61487 45.1932 7.12892C44.6791 7.64298 43.983 7.93351 43.2561 7.93745ZM43.2561 2.94808C42.8123 2.94808 42.3785 3.07967 42.0095 3.32622C41.6405 3.57277 41.3529 3.92319 41.1831 4.33318C41.0133 4.74317 40.9689 5.19432 41.0554 5.62956C41.142 6.06481 41.3557 6.46461 41.6695 6.7784C41.9833 7.09219 42.3831 7.30589 42.8183 7.39247C43.2536 7.47904 43.7047 7.43461 44.1147 7.26478C44.5247 7.09496 44.8751 6.80737 45.1217 6.43839C45.3682 6.06941 45.4998 5.6356 45.4998 5.19183C45.5001 4.89711 45.4422 4.60523 45.3295 4.33289C45.2169 4.06055 45.0516 3.81311 44.8432 3.60471C44.6348 3.39631 44.3873 3.23104 44.115 3.11837C43.8427 3.0057 43.5508 2.94783 43.2561 2.94808ZM37.9761 6.67058V2.28808H37.0523L33.5411 6.85495V7.7262H36.7092V9.4687H37.9761V7.7262H39.0323V6.66995L37.9761 6.67058ZM36.7092 5.6412V6.6437H35.8642C35.6005 6.6437 35.1248 6.66995 34.9667 6.66995L36.7617 4.2412C36.7617 4.45245 36.7092 5.0862 36.7092 5.64058V5.6412ZM28.4461 9.44245H33.3836V8.35995H30.1092C30.558 6.56495 33.3036 6.1687 33.3036 4.16245C33.3036 3.07995 32.5642 2.28745 31.033 2.28745C30.207 2.29413 29.3939 2.49291 28.658 2.86808L29.0017 3.87495C29.5298 3.63745 30.1105 3.39995 30.823 3.39995C31.4036 3.39995 31.9317 3.63745 31.9317 4.29745C31.9573 5.77245 28.7367 5.87808 28.4461 9.44245ZM23.668 6.51183L21.5561 3.60808H23.0873L24.4623 5.5087L25.8617 3.60808H27.393L25.2517 6.51183L27.4167 9.44245H25.8855L24.4861 7.4887L23.0605 9.44245H21.5292L23.668 6.51183ZM19.048 1.7862C19.048 1.54817 19.1425 1.31989 19.3108 1.15157C19.4791 0.983261 19.7074 0.888704 19.9455 0.888704C20.1835 0.888704 20.4118 0.983261 20.5801 1.15157C20.7484 1.31989 20.843 1.54817 20.843 1.7862C20.843 2.2612 20.4467 2.65745 19.9192 2.65745C19.3917 2.65745 19.048 2.28808 19.048 1.7862ZM19.2061 3.60745H20.6842V9.44183H19.2067L19.2061 3.60745ZM14.6123 3.60745H15.8792L16.0373 4.26745C16.5655 3.73933 17.0405 3.47558 17.648 3.47558C17.9375 3.47664 18.221 3.55893 18.4661 3.71308L17.9392 4.95433C17.7409 4.83174 17.5124 4.76681 17.2792 4.76683C16.883 4.76683 16.5667 4.92495 16.0917 5.34745V9.4687H14.613L14.6123 3.60745ZM6.82483 1.7862C6.82383 1.66806 6.84636 1.55091 6.89111 1.44157C6.93586 1.33222 7.00194 1.23289 7.08548 1.14935C7.16902 1.06581 7.26835 0.999736 7.3777 0.954986C7.48704 0.910236 7.60419 0.887704 7.72233 0.888704C8.22233 0.888704 8.64608 1.25808 8.64608 1.7862C8.64608 2.2612 8.24983 2.65745 7.72233 2.65745C7.19483 2.65745 6.82483 2.28808 6.82483 1.7862ZM6.98296 3.60745H8.46108V9.44183H6.98358L6.98296 3.60745ZM10.4392 8.01683V4.76683H9.38296V3.60808H10.4392V2.26183L11.9173 1.83933V3.60808H13.6892L13.3198 4.76995H11.9205V7.64495C11.9205 8.19933 12.108 8.38433 12.5011 8.38433C12.8221 8.37679 13.134 8.27579 13.3986 8.0937L13.8473 9.09683C13.4248 9.38745 12.7123 9.54558 12.1311 9.54558C11.0755 9.57433 10.4392 8.99308 10.4392 8.01683ZM0.251709 1.31245H2.62671C4.36921 1.31245 5.16108 2.31558 5.16108 3.37183C5.16108 4.08433 4.81796 4.71808 4.18421 5.05933V5.08558C5.13483 5.32308 5.71546 6.0887 5.71546 7.03933C5.71546 8.3062 4.76483 9.44183 2.86421 9.44183H0.251709V1.31245ZM2.44296 4.71808C3.26108 4.71808 3.70983 4.26933 3.70983 3.63558C3.70983 3.0287 3.31358 2.55308 2.44296 2.55308H1.75546V4.71808H2.44296ZM2.68046 8.22933C3.65733 8.22933 4.21171 7.85995 4.21171 7.04183C4.21171 6.35433 3.68358 5.93308 2.86546 5.93308H1.75671V8.22995L2.68046 8.22933Z" fill="white"/>
</svg>
