<svg width="72" height="72" viewBox="0 0 72 72" fill="none" xmlns="http://www.w3.org/2000/svg">
<path d="M39 32H39.01M36.5 45H30C29.2044 45 28.4413 44.6839 27.8787 44.1213C27.3161 43.5587 27 42.7956 27 42V30C27 29.2044 27.3161 28.4413 27.8787 27.8787C28.4413 27.3161 29.2044 27 30 27H42C42.7956 27 43.5587 27.3161 44.1213 27.8787C44.6839 28.4413 45 29.2044 45 30V36.5M27 40L32 35C32.928 34.107 34.072 34.107 35 35L38.5 38.5M38 38L39 37C39.679 36.347 40.473 36.171 41.214 36.474M43 46V40M43 40L46 43M43 40L40 43" stroke="#B3B3B3" stroke-width="1.66" stroke-linecap="round" stroke-linejoin="round"/>
</svg>
